<svg width="147" height="32" viewBox="0 0 147 32" fill="none" xmlns="http://www.w3.org/2000/svg">
<g clip-path="url(#clip0_38_2163)">
<path d="M146.999 14.3852V11.7656H143.789V7.69342L143.681 7.72688L140.666 8.66186L140.606 8.68019V11.7656H135.847V10.0469C135.847 9.24659 136.024 8.63393 136.372 8.22579C136.718 7.82201 137.212 7.61692 137.842 7.61692C138.296 7.61692 138.765 7.72513 139.238 7.93837L139.356 7.9919V5.2335L139.3 5.21313C138.86 5.05226 138.26 4.97168 137.517 4.97168C136.581 4.97168 135.73 5.17793 134.988 5.58724C134.246 5.99655 133.662 6.58186 133.252 7.32572C132.845 8.0687 132.638 8.92659 132.638 9.87612V11.7659H130.403V14.3855H132.638V25.4206H135.847V14.3852H140.606V21.3979C140.606 24.286 141.951 25.7499 144.602 25.7499C145.061 25.7471 145.517 25.6956 145.965 25.5963C146.442 25.4924 146.766 25.3886 146.957 25.2777L146.999 25.2524V22.6086L146.869 22.6962C146.695 22.814 146.478 22.91 146.224 22.9813C145.968 23.054 145.755 23.0907 145.59 23.0907C144.968 23.0907 144.509 22.9211 144.224 22.5862C143.935 22.2488 143.789 21.6579 143.789 20.8318V14.3852H146.999ZM123.236 23.091C122.071 23.091 121.153 22.6994 120.506 21.9288C119.855 21.1538 119.525 20.0495 119.525 18.6459C119.525 17.198 119.855 16.0649 120.506 15.2763C121.154 14.4931 122.063 14.0955 123.21 14.0955C124.323 14.0955 125.208 14.4751 125.843 15.2248C126.48 15.9779 126.804 17.102 126.804 18.5667C126.804 20.0495 126.5 21.1887 125.9 21.9506C125.304 22.707 124.408 23.091 123.236 23.091ZM123.379 11.4366C121.157 11.4366 119.392 12.0963 118.134 13.3976C116.876 14.6991 116.238 16.4998 116.238 18.7509C116.238 20.8888 116.861 22.6083 118.088 23.8613C119.316 25.1142 120.987 25.7493 123.054 25.7493C125.208 25.7493 126.938 25.0805 128.196 23.7612C129.453 22.4434 130.091 20.6595 130.091 18.4608C130.091 16.2898 129.493 14.5574 128.313 13.3129C127.132 12.0678 125.472 11.4366 123.379 11.4366ZM111.064 11.4366C109.552 11.4366 108.302 11.8284 107.347 12.6008C106.386 13.3778 105.899 14.3971 105.899 15.6303C105.899 16.2712 106.004 16.8405 106.211 17.3234C106.419 17.808 106.742 18.2345 107.17 18.5926C107.595 18.9478 108.251 19.3199 109.121 19.6981C109.851 20.003 110.396 20.261 110.743 20.464C111.081 20.6633 111.321 20.8635 111.457 21.0584C111.589 21.2489 111.656 21.5102 111.656 21.8322C111.656 22.7497 110.978 23.196 109.583 23.196C109.065 23.196 108.475 23.0866 107.828 22.8707C107.186 22.6579 106.581 22.3466 106.032 21.9477L105.899 21.8511V24.9813L105.947 25.0046C106.402 25.2169 106.974 25.3958 107.649 25.5369C108.322 25.6777 108.934 25.7496 109.466 25.7496C111.106 25.7496 112.427 25.356 113.39 24.579C114.361 23.7964 114.852 22.7535 114.852 21.4773C114.852 20.5571 114.588 19.7676 114.066 19.1311C113.548 18.4998 112.649 17.92 111.395 17.4078C110.396 17.0014 109.755 16.6642 109.491 16.4053C109.237 16.1551 109.108 15.8014 109.108 15.3536C109.108 14.9563 109.267 14.6383 109.595 14.3806C109.925 14.1216 110.384 13.9899 110.96 13.9899C111.495 13.9899 112.042 14.0754 112.586 14.243C113.13 14.4108 113.607 14.6357 114.006 14.9103L114.137 15.0011V12.0315L114.087 12.0096C113.719 11.8496 113.234 11.7129 112.645 11.6024C112.058 11.4924 111.526 11.4366 111.064 11.4366ZM97.5326 23.091C96.3681 23.091 95.4496 22.6994 94.8025 21.9288C94.1513 21.1538 93.822 20.0495 93.822 18.6459C93.822 17.198 94.1516 16.0649 94.8034 15.2763C95.4502 14.4931 96.3595 14.0955 97.5068 14.0955C98.6193 14.0955 99.505 14.4751 100.14 15.2248C100.777 15.9779 101.101 17.102 101.101 18.5667C101.101 20.0495 100.796 21.1887 100.196 21.9506C99.6004 22.707 98.7046 23.091 97.5326 23.091ZM97.6759 11.4366C95.4531 11.4366 93.688 12.0963 92.4304 13.3976C91.1729 14.6991 90.5347 16.4998 90.5347 18.7509C90.5347 20.8896 91.1577 22.6083 92.3851 23.8613C93.6124 25.1142 95.2834 25.7493 97.3509 25.7493C99.5042 25.7493 101.235 25.0805 102.493 23.7612C103.75 22.4434 104.388 20.6595 104.388 18.4608C104.388 16.2898 103.79 14.5574 102.61 13.3129C101.429 12.0678 99.7686 11.4366 97.6759 11.4366ZM85.6633 14.1304V11.7656H82.4934V25.42H85.663V18.435C85.663 17.2472 85.9289 16.2715 86.4534 15.5346C86.9711 14.8064 87.6613 14.4373 88.5034 14.4373C88.789 14.4373 89.1095 14.485 89.4566 14.5795C89.8002 14.6732 90.0492 14.775 90.1959 14.8821L90.3291 14.9801V11.7423L90.2774 11.7199C89.9826 11.5928 89.5648 11.5288 89.0365 11.5288C88.2398 11.5288 87.5269 11.788 86.9165 12.2985C86.3805 12.7474 85.9929 13.363 85.6969 14.1304H85.6633ZM76.8167 11.4366C75.3625 11.4366 74.065 11.7528 72.9617 12.3756C71.8563 12.9996 71.001 13.8912 70.4194 15.0243C69.8403 16.1551 69.5463 17.4758 69.5463 18.9487C69.5463 20.2386 69.8314 21.4226 70.3947 22.4658C70.9586 23.511 71.7567 24.3288 72.7668 24.896C73.7756 25.4624 74.9416 25.7496 76.2321 25.7496C77.7386 25.7496 79.0248 25.4444 80.0564 24.8428L80.0977 24.8184V21.8758L79.9648 21.9744C79.4902 22.3227 78.9677 22.5984 78.4139 22.7925C77.8534 22.9906 77.343 23.0907 76.8951 23.0907C75.651 23.0907 74.6528 22.6965 73.9278 21.9192C73.2014 21.1404 72.8331 20.0475 72.8331 18.6718C72.8331 17.2876 73.2172 16.1664 73.974 15.3388C74.7288 14.5141 75.7291 14.0958 76.9473 14.0958C77.9892 14.0958 79.0044 14.4533 79.9648 15.1593L80.0977 15.2571V12.1566L80.055 12.1321C79.6932 11.927 79.2005 11.7577 78.5884 11.6294C77.9792 11.5014 77.3831 11.4366 76.8167 11.4366ZM67.3631 11.7656H64.1929V25.42H67.3631V11.7656ZM65.8104 5.94884C65.2888 5.94884 64.8337 6.12892 64.4599 6.48528C64.0843 6.8431 63.8937 7.29342 63.8937 7.82462C63.8937 8.34768 64.082 8.78957 64.4536 9.13779C64.8231 9.48484 65.2796 9.66084 65.8104 9.66084C66.341 9.66084 66.7992 9.48484 67.173 9.13837C67.5492 8.78957 67.7401 8.34768 67.7401 7.82462C67.7401 7.31204 67.5543 6.86608 67.1885 6.49983C66.8231 6.13415 66.3591 5.94884 65.8104 5.94884ZM57.9012 10.7584V25.4197H61.1363V6.36688H56.6589L50.9676 20.5187L45.4448 6.36688H40.785V25.42H43.8252V10.757H43.9297L49.7617 25.42H52.0557L57.7967 10.7582L57.9012 10.7584Z" fill="#706D6E"/>
<path d="M14.9127 15.1095H0.000610352V0H14.9127V15.1095Z" fill="#F1511B"/>
<path d="M31.3776 15.1095H16.4656V0H31.3776V15.1095Z" fill="#80CC28"/>
<path d="M14.9124 31.7985H0.000610352V16.689H14.9124V31.7985Z" fill="#00ADEF"/>
<path d="M31.3776 31.7985H16.4656V16.689H31.3776V31.7985Z" fill="#FBBC09"/>
</g>
<defs>
<clipPath id="clip0_38_2163">
<rect width="147" height="32" fill="white"/>
</clipPath>
</defs>
</svg>
