<svg width="101" height="100" viewBox="0 0 101 100" fill="none" xmlns="http://www.w3.org/2000/svg">
<g id="compost" filter="url(#filter0_d_38_1674)">
<mask id="mask0_38_1674" style="mask-type:alpha" maskUnits="userSpaceOnUse" x="0" y="0" width="101" height="100">
<rect id="Bounding box" x="0.5" width="100" height="100" fill="#D9D9D9"/>
</mask>
<g mask="url(#mask0_38_1674)">
<path id="compost_2" d="M50.5 89.5833C45.0138 89.5833 39.875 88.5417 35.0833 86.4583C30.2916 84.375 26.1076 81.5451 22.5312 77.9688C18.9548 74.3924 16.125 70.2083 14.0416 65.4167C11.9583 60.625 10.9166 55.4861 10.9166 50C10.9166 44.5139 11.9583 39.375 14.0416 34.5833C16.125 29.7917 18.9548 25.6076 22.5312 22.0313C26.1076 18.4549 30.2916 15.625 35.0833 13.5417C39.875 11.4583 45.0138 10.4167 50.5 10.4167V0L67.1666 16.6667L50.5 33.3333V22.9167C43 22.9167 36.6111 25.5556 31.3333 30.8333C26.0555 36.1111 23.4166 42.5 23.4166 50C23.4166 54.5833 24.4757 58.8368 26.5937 62.7604C28.7118 66.684 31.5416 69.8611 35.0833 72.2917C36.1944 70.3472 37.8437 68.6979 40.0312 67.3438C42.2187 65.9896 44.7361 65.1389 47.5833 64.7917C47.375 63.3333 47.0972 61.875 46.75 60.4167C46.4027 58.9583 45.9861 57.6042 45.5 56.3542C44.7361 56.9792 43.9027 57.4653 43 57.8125C42.0972 58.1597 41.125 58.3333 40.0833 58.3333C37.7916 58.3333 35.8298 57.5174 34.1979 55.8854C32.5659 54.2535 31.75 52.2917 31.75 50V45.8333C31.75 44.6528 31.559 43.5417 31.177 42.5C30.7951 41.4583 30.2916 40.4861 29.6666 39.5833C33.1388 39.5139 36.2291 39.8264 38.9375 40.5208C41.2986 41.1458 43.4514 42.1701 45.3958 43.5938C47.3402 45.0174 48.3472 47.1528 48.4166 50C48.4166 50.625 48.3645 51.1979 48.2604 51.7188C48.1562 52.2396 47.9652 52.7778 47.6875 53.3333C46.7847 52.6389 45.8819 52.0139 44.9791 51.4583C44.0763 50.9028 43.1388 50.4167 42.1666 50C43.3472 50.9028 44.7013 52.2917 46.2291 54.1667C47.7569 56.0417 49.1805 58.2639 50.5 60.8333C51.8888 57.4306 53.625 54.0799 55.7083 50.7813C57.7916 47.4826 60.2222 44.4444 63 41.6667C61.4027 42.7778 59.875 43.9583 58.4166 45.2083C56.9583 46.4583 55.5347 47.7778 54.1458 49.1667C53.6597 48.4028 53.2777 47.5521 53 46.6146C52.7222 45.6771 52.5833 44.7222 52.5833 43.75C52.5833 40.8333 53.5902 38.3681 55.6041 36.3542C57.618 34.3403 60.0833 33.3333 63 33.3333H67.1666C68.7638 33.3333 70.0833 33.125 71.125 32.7083C72.1666 32.2917 73.0347 31.8056 73.7291 31.25C74.493 30.625 75.0833 29.9306 75.5 29.1667C75.7777 33.8194 75.5347 37.9861 74.7708 41.6667C74.1458 44.7917 72.9652 47.6563 71.2291 50.2604C69.493 52.8646 66.75 54.1667 63 54.1667C61.9583 54.1667 60.9687 54.0278 60.0312 53.75C59.0937 53.4722 58.243 53.0903 57.4791 52.6042C56.993 53.9236 56.4375 55.6771 55.8125 57.8646C55.1875 60.0521 54.7013 62.3958 54.3541 64.8958C56.993 65.382 59.3194 66.2847 61.3333 67.6042C63.3472 68.9236 64.875 70.4861 65.9166 72.2917C69.4583 69.8611 72.2882 66.7014 74.4062 62.8125C76.5243 58.9236 77.5833 54.6528 77.5833 50H90.0833C90.0833 55.4861 89.0416 60.625 86.9583 65.4167C84.875 70.2083 82.0451 74.3924 78.4687 77.9688C74.8923 81.5451 70.7083 84.375 65.9166 86.4583C61.125 88.5417 55.9861 89.5833 50.5 89.5833Z" fill="#4B0082"/>
</g>
</g>
<defs>
<filter id="filter0_d_38_1674" x="6.91663" y="0" width="87.1666" height="97.5833" filterUnits="userSpaceOnUse" color-interpolation-filters="sRGB">
<feFlood flood-opacity="0" result="BackgroundImageFix"/>
<feColorMatrix in="SourceAlpha" type="matrix" values="0 0 0 0 0 0 0 0 0 0 0 0 0 0 0 0 0 0 127 0" result="hardAlpha"/>
<feOffset dy="4"/>
<feGaussianBlur stdDeviation="2"/>
<feComposite in2="hardAlpha" operator="out"/>
<feColorMatrix type="matrix" values="0 0 0 0 0 0 0 0 0 0 0 0 0 0 0 0 0 0 0.25 0"/>
<feBlend mode="normal" in2="BackgroundImageFix" result="effect1_dropShadow_38_1674"/>
<feBlend mode="normal" in="SourceGraphic" in2="effect1_dropShadow_38_1674" result="shape"/>
</filter>
</defs>
</svg>
