<svg width="62" height="61" viewBox="0 0 62 61" fill="none" xmlns="http://www.w3.org/2000/svg">
<g id="diversity_3">
<mask id="mask0_38_1714" style="mask-type:alpha" maskUnits="userSpaceOnUse" x="0" y="0" width="62" height="61">
<rect id="Bounding box" x="0.962402" width="60.4855" height="60.4855" fill="#D9D9D9"/>
</mask>
<g mask="url(#mask0_38_1714)">
<path id="diversity_3_2" d="M3.48267 50.4047V40.3238C3.48267 38.8956 3.97621 37.6985 4.9633 36.7324C5.95039 35.7663 7.137 35.2833 8.52313 35.2833H16.7769C17.617 35.2833 18.415 35.4933 19.1711 35.9134C19.9272 36.3334 20.5362 36.9005 20.9983 37.6145C22.2164 39.2527 23.718 40.5338 25.5032 41.4579C27.2884 42.382 29.189 42.844 31.2052 42.844C33.2634 42.844 35.1851 42.382 36.9702 41.4579C38.7554 40.5338 40.236 39.2527 41.4121 37.6145C41.9582 36.9005 42.5988 36.3334 43.3338 35.9134C44.0689 35.4933 44.8355 35.2833 45.6335 35.2833H53.8873C55.3154 35.2833 56.5125 35.7663 57.4786 36.7324C58.4447 37.6985 58.9278 38.8956 58.9278 40.3238V50.4047H41.2861V44.6712C39.816 45.7213 38.2304 46.5193 36.5292 47.0654C34.828 47.6114 33.0534 47.8845 31.2052 47.8845C29.399 47.8845 27.6349 47.6009 25.9127 47.0339C24.1906 46.4668 22.5944 45.6583 21.1243 44.6082V50.4047H3.48267ZM31.2052 40.3238C29.6091 40.3238 28.0969 39.9562 26.6688 39.2212C25.2407 38.4861 24.0436 37.4675 23.0775 36.1654C22.3634 35.1153 21.4708 34.2857 20.3997 33.6767C19.3286 33.0676 18.163 32.7631 16.9029 32.7631C17.827 31.2089 19.7802 29.9803 22.7624 29.0772C25.7447 28.1742 28.559 27.7226 31.2052 27.7226C33.8515 27.7226 36.6657 28.1742 39.648 29.0772C42.6303 29.9803 44.5834 31.2089 45.5075 32.7631C44.2894 32.7631 43.1343 33.0676 42.0422 33.6767C40.9501 34.2857 40.047 35.1153 39.333 36.1654C38.4089 37.5095 37.2328 38.5386 35.8046 39.2527C34.3765 39.9667 32.8434 40.3238 31.2052 40.3238ZM11.0434 32.7631C8.94317 32.7631 7.158 32.028 5.68787 30.5579C4.21773 29.0877 3.48267 27.3026 3.48267 25.2024C3.48267 23.0602 4.21773 21.2645 5.68787 19.8154C7.158 18.3663 8.94317 17.6417 11.0434 17.6417C13.1856 17.6417 14.9812 18.3663 16.4304 19.8154C17.8795 21.2645 18.6041 23.0602 18.6041 25.2024C18.6041 27.3026 17.8795 29.0877 16.4304 30.5579C14.9812 32.028 13.1856 32.7631 11.0434 32.7631ZM51.3671 32.7631C49.2669 32.7631 47.4817 32.028 46.0116 30.5579C44.5414 29.0877 43.8064 27.3026 43.8064 25.2024C43.8064 23.0602 44.5414 21.2645 46.0116 19.8154C47.4817 18.3663 49.2669 17.6417 51.3671 17.6417C53.5093 17.6417 55.3049 18.3663 56.7541 19.8154C58.2032 21.2645 58.9278 23.0602 58.9278 25.2024C58.9278 27.3026 58.2032 29.0877 56.7541 30.5579C55.3049 32.028 53.5093 32.7631 51.3671 32.7631ZM31.2052 25.2024C29.105 25.2024 27.3199 24.4673 25.8497 22.9972C24.3796 21.527 23.6445 19.7419 23.6445 17.6417C23.6445 15.4995 24.3796 13.7038 25.8497 12.2547C27.3199 10.8056 29.105 10.081 31.2052 10.081C33.3474 10.081 35.1431 10.8056 36.5922 12.2547C38.0413 13.7038 38.7659 15.4995 38.7659 17.6417C38.7659 19.7419 38.0413 21.527 36.5922 22.9972C35.1431 24.4673 33.3474 25.2024 31.2052 25.2024Z" fill="white"/>
</g>
</g>
</svg>
