<svg width="101" height="100" viewBox="0 0 101 100" fill="none" xmlns="http://www.w3.org/2000/svg">
<g id="humidity_mid" filter="url(#filter0_d_38_1688)">
<mask id="mask0_38_1688" style="mask-type:alpha" maskUnits="userSpaceOnUse" x="0" y="0" width="101" height="100">
<rect id="Bounding box" x="0.5" width="100" height="100" fill="#D9D9D9"/>
</mask>
<g mask="url(#mask0_38_1688)">
<path id="humidity_mid_2" d="M50.5 89.5834C41.2638 89.5834 33.3993 86.3889 26.9062 80C20.4132 73.6111 17.1666 65.8334 17.1666 56.6667C17.1666 52.2917 18.0173 48.1077 19.7187 44.1146C21.4201 40.1216 23.8333 36.5973 26.9583 33.5417L44.6666 16.1459C45.5 15.382 46.4201 14.7917 47.427 14.375C48.434 13.9584 49.4583 13.75 50.5 13.75C51.5416 13.75 52.5659 13.9584 53.5729 14.375C54.5798 14.7917 55.5 15.382 56.3333 16.1459L74.0416 33.5417C77.1666 36.5973 79.5798 40.1216 81.2812 44.1146C82.9826 48.1077 83.8333 52.2917 83.8333 56.6667C83.8333 65.8334 80.5868 73.6111 74.0937 80C67.6007 86.3889 59.7361 89.5834 50.5 89.5834ZM25.5 56.6667H75.5C75.5 53.4028 74.875 50.2952 73.625 47.3438C72.375 44.3924 70.5694 41.8056 68.2083 39.5834L50.5 22.0834L32.7916 39.5834C30.4305 41.8056 28.625 44.3924 27.375 47.3438C26.125 50.2952 25.5 53.4028 25.5 56.6667Z" fill="#4B0082"/>
</g>
</g>
<defs>
<filter id="filter0_d_38_1688" x="13.1666" y="13.75" width="74.6666" height="83.8333" filterUnits="userSpaceOnUse" color-interpolation-filters="sRGB">
<feFlood flood-opacity="0" result="BackgroundImageFix"/>
<feColorMatrix in="SourceAlpha" type="matrix" values="0 0 0 0 0 0 0 0 0 0 0 0 0 0 0 0 0 0 127 0" result="hardAlpha"/>
<feOffset dy="4"/>
<feGaussianBlur stdDeviation="2"/>
<feComposite in2="hardAlpha" operator="out"/>
<feColorMatrix type="matrix" values="0 0 0 0 0 0 0 0 0 0 0 0 0 0 0 0 0 0 0.25 0"/>
<feBlend mode="normal" in2="BackgroundImageFix" result="effect1_dropShadow_38_1688"/>
<feBlend mode="normal" in="SourceGraphic" in2="effect1_dropShadow_38_1688" result="shape"/>
</filter>
</defs>
</svg>
