<svg width="61" height="62" viewBox="0 0 61 62" fill="none" xmlns="http://www.w3.org/2000/svg">
<g id="solar_power">
<mask id="mask0_38_1702" style="mask-type:alpha" maskUnits="userSpaceOnUse" x="-1" y="0" width="62" height="62">
<rect id="Bounding box" x="-0.00720215" y="0.789001" width="60.4855" height="60.4855" fill="#D9D9D9"/>
</mask>
<g mask="url(#mask0_38_1702)">
<path id="solar_power_2" d="M7.55343 10.8699V5.82947H15.1141V10.8699H7.55343ZM5.0332 56.2341H27.7153V46.1532H7.04939L5.0332 56.2341ZM15.4292 24.2902L11.8378 20.7618L17.1933 15.4063L20.7846 18.9347L15.4292 24.2902ZM8.05748 41.1127H27.7153V31.0318H10.0737L8.05748 41.1127ZM30.2355 18.4306C26.7492 18.4306 23.7774 17.202 21.3202 14.7448C18.863 12.2876 17.6344 9.31579 17.6344 5.82947H42.8367C42.8367 9.31579 41.6081 12.2876 39.1508 14.7448C36.6936 17.202 33.7218 18.4306 30.2355 18.4306ZM27.7153 28.5115V20.9509H32.7557V28.5115H27.7153ZM32.7557 56.2341H55.4378L53.4216 46.1532H32.7557V56.2341ZM32.7557 41.1127H52.4135L50.3974 31.0318H32.7557V41.1127ZM45.0419 24.2902L39.7494 18.9347L43.2777 15.4063L48.6332 20.6988L45.0419 24.2902ZM45.3569 10.8699V5.82947H52.9176V10.8699H45.3569Z" fill="white"/>
</g>
</g>
</svg>
