<svg width="101" height="100" viewBox="0 0 101 100" fill="none" xmlns="http://www.w3.org/2000/svg">
<g id="sports_soccer" filter="url(#filter0_d_38_1681)">
<mask id="mask0_38_1681" style="mask-type:alpha" maskUnits="userSpaceOnUse" x="0" y="0" width="101" height="100">
<rect id="Bounding box" x="0.5" width="100" height="100" fill="#D9D9D9"/>
</mask>
<g mask="url(#mask0_38_1681)">
<path id="sports_soccer_2" d="M50.5 91.6667C44.7362 91.6667 39.3195 90.5729 34.25 88.3854C29.1806 86.1979 24.7709 83.2292 21.0209 79.4792C17.2709 75.7292 14.3021 71.3194 12.1146 66.25C9.92712 61.1805 8.83337 55.7639 8.83337 50C8.83337 44.2361 9.92712 38.8194 12.1146 33.75C14.3021 28.6805 17.2709 24.2708 21.0209 20.5208C24.7709 16.7708 29.1806 13.8021 34.25 11.6146C39.3195 9.42706 44.7362 8.33331 50.5 8.33331C56.2639 8.33331 61.6806 9.42706 66.75 11.6146C71.8195 13.8021 76.2292 16.7708 79.9792 20.5208C83.7292 24.2708 86.698 28.6805 88.8855 33.75C91.073 38.8194 92.1667 44.2361 92.1667 50C92.1667 55.7639 91.073 61.1805 88.8855 66.25C86.698 71.3194 83.7292 75.7292 79.9792 79.4792C76.2292 83.2292 71.8195 86.1979 66.75 88.3854C61.6806 90.5729 56.2639 91.6667 50.5 91.6667ZM71.3334 39.5833L76.9584 37.7083L78.625 32.0833C76.4028 28.75 73.7292 25.8854 70.6042 23.4896C67.4792 21.0937 64.0417 19.3055 60.2917 18.125L54.6667 22.0833V27.9166L71.3334 39.5833ZM29.6667 39.5833L46.3334 27.9166V22.0833L40.7084 18.125C36.9584 19.3055 33.5209 21.0937 30.3959 23.4896C27.2709 25.8854 24.5973 28.75 22.375 32.0833L24.0417 37.7083L29.6667 39.5833ZM25.2917 71.6666L30.0834 71.25L33.2084 65.625L27.1667 47.5L21.3334 45.4166L17.1667 48.5416C17.1667 53.0555 17.7917 57.1701 19.0417 60.8854C20.2917 64.6007 22.375 68.1944 25.2917 71.6666ZM50.5 83.3333C52.3056 83.3333 54.0764 83.1944 55.8125 82.9166C57.5487 82.6389 59.25 82.2222 60.9167 81.6667L63.8334 75.4167L61.125 70.8333H39.875L37.1667 75.4167L40.0834 81.6667C41.75 82.2222 43.4514 82.6389 45.1875 82.9166C46.9237 83.1944 48.6945 83.3333 50.5 83.3333ZM41.125 62.5H59.875L65.7084 45.8333L50.5 35.2083L35.5 45.8333L41.125 62.5ZM75.7084 71.6666C78.6251 68.1944 80.7084 64.6007 81.9584 60.8854C83.2084 57.1701 83.8334 53.0555 83.8334 48.5416L79.6667 45.625L73.8334 47.5L67.7917 65.625L70.9167 71.25L75.7084 71.6666Z" fill="#4B0082"/>
</g>
</g>
<defs>
<filter id="filter0_d_38_1681" x="4.83337" y="8.33331" width="91.3334" height="91.3333" filterUnits="userSpaceOnUse" color-interpolation-filters="sRGB">
<feFlood flood-opacity="0" result="BackgroundImageFix"/>
<feColorMatrix in="SourceAlpha" type="matrix" values="0 0 0 0 0 0 0 0 0 0 0 0 0 0 0 0 0 0 127 0" result="hardAlpha"/>
<feOffset dy="4"/>
<feGaussianBlur stdDeviation="2"/>
<feComposite in2="hardAlpha" operator="out"/>
<feColorMatrix type="matrix" values="0 0 0 0 0 0 0 0 0 0 0 0 0 0 0 0 0 0 0.25 0"/>
<feBlend mode="normal" in2="BackgroundImageFix" result="effect1_dropShadow_38_1681"/>
<feBlend mode="normal" in="SourceGraphic" in2="effect1_dropShadow_38_1681" result="shape"/>
</filter>
</defs>
</svg>
