<svg width="318" height="68" viewBox="0 0 318 68" fill="none" xmlns="http://www.w3.org/2000/svg">
<g clip-path="url(#clip0_38_1466)">
<path d="M317.999 30.5684V25.0017H311.054V16.3484L310.82 16.4195L304.297 18.4063L304.169 18.4453V25.0017H293.873V21.3495C293.873 19.6489 294.255 18.347 295.009 17.4797C295.756 16.6216 296.826 16.1858 298.19 16.1858C299.171 16.1858 300.186 16.4158 301.208 16.8689L301.464 16.9827V11.1211L301.344 11.0778C300.39 10.7359 299.093 10.5647 297.487 10.5647C295.461 10.5647 293.62 11.003 292.015 11.8728C290.409 12.7426 289.145 13.9863 288.26 15.567C287.378 17.1459 286.931 18.9689 286.931 20.9866V25.0023H282.095V30.5691H286.931V54.0186H293.873V30.5684H304.169V45.4703C304.169 51.6076 307.077 54.7183 312.813 54.7183C313.805 54.7125 314.793 54.6031 315.761 54.3919C316.792 54.1712 317.494 53.9506 317.907 53.715L317.999 53.6612V48.0432L317.717 48.2293C317.34 48.4796 316.871 48.6836 316.321 48.8351C315.768 48.9896 315.306 49.0675 314.949 49.0675C313.605 49.0675 312.611 48.7071 311.994 47.9956C311.37 47.2785 311.054 46.023 311.054 44.2674V30.5684H317.999ZM266.592 49.0682C264.073 49.0682 262.086 48.2361 260.686 46.5985C259.278 44.9517 258.564 42.6051 258.564 39.6223C258.564 36.5456 259.278 34.1378 260.687 32.4619C262.088 30.7978 264.055 29.9527 266.536 29.9527C268.943 29.9527 270.859 30.7595 272.231 32.3525C273.611 33.953 274.311 36.3416 274.311 39.4542C274.311 42.6051 273.652 45.0259 272.354 46.6449C271.066 48.2522 269.127 49.0682 266.592 49.0682ZM266.902 24.3026C262.095 24.3026 258.276 25.7046 255.554 28.4697C252.833 31.2355 251.454 35.062 251.454 39.8455C251.454 44.3885 252.801 48.0426 255.456 50.7051C258.112 53.3676 261.727 54.7171 266.198 54.7171C270.858 54.7171 274.6 53.2959 277.322 50.4924C280.042 47.6921 281.421 43.9014 281.421 39.2292C281.421 34.6157 280.127 30.9344 277.575 28.2898C275.021 25.644 271.429 24.3026 266.902 24.3026ZM240.261 24.3026C236.991 24.3026 234.286 25.1352 232.22 26.7765C230.141 28.4277 229.087 30.5938 229.087 33.2143C229.087 34.5761 229.314 35.7859 229.763 36.8121C230.213 37.842 230.91 38.7482 231.837 39.5092C232.756 40.264 234.175 41.0547 236.057 41.8583C237.637 42.5062 238.817 43.0545 239.566 43.486C240.298 43.9094 240.818 44.3347 241.111 44.7489C241.396 45.1538 241.541 45.7089 241.541 46.3933C241.541 48.343 240.074 49.2913 237.057 49.2913C235.937 49.2913 234.66 49.0589 233.261 48.6002C231.873 48.148 230.562 47.4865 229.375 46.6387L229.087 46.4335V53.0851L229.192 53.1346C230.175 53.5858 231.413 53.966 232.873 54.2658C234.33 54.565 235.653 54.7177 236.803 54.7177C240.351 54.7177 243.209 53.8813 245.293 52.2301C247.393 50.5672 248.456 48.3511 248.456 45.6391C248.456 43.6838 247.883 42.006 246.754 40.6535C245.634 39.312 243.689 38.08 240.976 36.9914C238.815 36.1278 237.43 35.4113 236.859 34.8611C236.308 34.3295 236.029 33.5778 236.029 32.6264C236.029 31.7819 236.374 31.1063 237.083 30.5586C237.797 30.0084 238.791 29.7283 240.037 29.7283C241.194 29.7283 242.377 29.9101 243.554 30.2662C244.73 30.6228 245.762 31.1007 246.625 31.6843L246.908 31.8771V25.5667L246.8 25.5204C246.005 25.1804 244.955 24.8898 243.682 24.6549C242.412 24.4212 241.261 24.3026 240.261 24.3026ZM210.989 49.0682C208.47 49.0682 206.483 48.2361 205.083 46.5985C203.674 44.9517 202.962 42.6051 202.962 39.6223C202.962 36.5456 203.675 34.1378 205.085 32.4619C206.484 30.7978 208.451 29.9527 210.933 29.9527C213.34 29.9527 215.256 30.7595 216.628 32.3525C218.008 33.953 218.708 36.3416 218.708 39.4542C218.708 42.6051 218.049 45.0259 216.751 46.6449C215.462 48.2522 213.524 49.0682 210.989 49.0682ZM211.299 24.3026C206.49 24.3026 202.672 25.7046 199.951 28.4697C197.231 31.2355 195.85 35.062 195.85 39.8455C195.85 44.3904 197.198 48.0426 199.853 50.7051C202.509 53.3676 206.123 54.7171 210.596 54.7171C215.254 54.7171 218.998 53.2959 221.719 50.4924C224.439 47.6921 225.819 43.9014 225.819 39.2292C225.819 34.6157 224.524 30.9344 221.972 28.2898C219.417 25.644 215.826 24.3026 211.299 24.3026ZM185.312 30.0269V25.0017H178.455V54.0173H185.312V39.1742C185.312 36.6501 185.887 34.5767 187.022 33.0109C188.141 31.4636 189.635 30.6791 191.456 30.6791C192.074 30.6791 192.767 30.7805 193.518 30.9814C194.262 31.1804 194.8 31.3968 195.118 31.6243L195.406 31.8326V24.9523L195.294 24.9047C194.656 24.6345 193.752 24.4985 192.61 24.4985C190.886 24.4985 189.344 25.0493 188.023 26.1342C186.864 27.0881 186.025 28.3962 185.385 30.0269H185.312ZM166.175 24.3026C163.029 24.3026 160.222 24.9745 157.835 26.298C155.444 27.624 153.594 29.5188 152.336 31.9266C151.083 34.3295 150.447 37.136 150.447 40.2659C150.447 43.0069 151.064 45.5229 152.282 47.7397C153.502 49.9608 155.229 51.6985 157.414 52.904C159.596 54.1076 162.118 54.7177 164.91 54.7177C168.169 54.7177 170.952 54.0692 173.183 52.7908L173.273 52.7389V46.486L172.985 46.6956C171.958 47.4357 170.828 48.0214 169.63 48.4339C168.418 48.8549 167.313 49.0675 166.344 49.0675C163.653 49.0675 161.494 48.2299 159.925 46.5781C158.354 44.9232 157.557 42.6007 157.557 39.6774C157.557 36.736 158.388 34.3536 160.025 32.5948C161.658 30.8423 163.822 29.9534 166.457 29.9534C168.711 29.9534 170.908 30.7131 172.985 32.2134L173.273 32.4211V25.8326L173.18 25.7806C172.398 25.3448 171.332 24.985 170.008 24.7124C168.69 24.4404 167.4 24.3026 166.175 24.3026ZM145.724 25.0017H138.866V54.0173H145.724V25.0017ZM142.365 12.6412C141.237 12.6412 140.252 13.0238 139.444 13.7811C138.631 14.5415 138.219 15.4984 138.219 16.6272C138.219 17.7387 138.626 18.6777 139.43 19.4177C140.229 20.1552 141.217 20.5292 142.365 20.5292C143.513 20.5292 144.504 20.1552 145.313 19.4189C146.127 18.6777 146.54 17.7387 146.54 16.6272C146.54 15.538 146.138 14.5903 145.347 13.812C144.556 13.035 143.552 12.6412 142.365 12.6412ZM125.256 22.8616V54.0167H132.254V13.5295H122.568L110.256 43.6022L98.3091 13.5295H88.2288V54.0173H94.8055V22.8585H95.0316L107.648 54.0173H112.61L125.03 22.861L125.256 22.8616Z" fill="#706D6E"/>
<path d="M32.26 32.1077H0.00128174V0H32.26V32.1077Z" fill="#F1511B"/>
<path d="M67.8782 32.1077H35.6195V0H67.8782V32.1077Z" fill="#80CC28"/>
<path d="M32.2594 67.5716H0.00128174V35.4639H32.2594V67.5716Z" fill="#00ADEF"/>
<path d="M67.8782 67.5716H35.6195V35.4639H67.8782V67.5716Z" fill="#FBBC09"/>
</g>
<defs>
<clipPath id="clip0_38_1466">
<rect width="318" height="68" fill="white"/>
</clipPath>
</defs>
</svg>
