<svg width="270" height="88" viewBox="0 0 270 88" fill="none" xmlns="http://www.w3.org/2000/svg">
<g clip-path="url(#clip0_38_1472)">
<path d="M261.586 53.7805L269.076 58.7405C266.645 62.2972 260.831 68.3995 250.779 68.3995C238.296 68.3995 228.999 58.806 228.999 46.6017C228.999 33.6149 238.394 24.8044 249.728 24.8044C261.126 24.8044 266.711 33.8103 268.518 38.6723L269.504 41.1525L240.136 53.2258C242.369 57.5986 245.852 59.8174 250.779 59.8174C255.707 59.8174 259.123 57.4027 261.586 53.7805ZM238.559 45.9171L258.17 37.8243C257.086 35.1162 253.867 33.1912 250.023 33.1912C245.129 33.1912 238.329 37.4984 238.559 45.9171Z" fill="#FF302F"/>
<path d="M214.841 2.58301H224.301V66.4092H214.841V2.58301Z" fill="#20B15A"/>
<path d="M199.927 26.5011H209.06V65.2666C209.06 81.3534 199.5 87.9775 188.2 87.9775C177.556 87.9775 171.151 80.8641 168.753 75.0886L177.129 71.6294C178.64 75.186 182.287 79.3959 188.2 79.3959C195.459 79.3959 199.927 74.9252 199.927 66.572V63.4396H199.599C197.43 66.0497 193.291 68.399 188.036 68.399C177.063 68.399 167.011 58.9034 167.011 46.6672C167.011 34.365 177.063 24.772 188.036 24.772C193.259 24.772 197.43 27.0888 199.599 29.634H199.927V26.5011ZM200.584 46.6672C200.584 38.9662 195.427 33.3535 188.857 33.3535C182.221 33.3535 176.636 38.9662 176.636 46.6672C176.636 54.2698 182.221 59.7845 188.857 59.7845C195.427 59.8175 200.584 54.2698 200.584 46.6672" fill="#3686F7"/>
<path d="M115.075 46.5038C115.075 59.0669 105.221 68.3011 93.1317 68.3011C81.0432 68.3011 71.188 59.0344 71.188 46.5038C71.188 33.8758 81.0432 24.6741 93.1317 24.6741C105.221 24.6741 115.075 33.8758 115.075 46.5038ZM105.483 46.5038C105.483 38.6729 99.7671 33.2881 93.1317 33.2881C86.4963 33.2881 80.7801 38.6729 80.7801 46.5038C80.7801 54.2698 86.4963 59.7195 93.1317 59.7195C99.7676 59.7195 105.483 54.2698 105.483 46.5038Z" fill="#FF302F"/>
<path d="M163.004 46.6017C163.004 59.1648 153.149 68.399 141.06 68.399C128.971 68.399 119.116 59.1643 119.116 46.6017C119.116 33.9737 128.971 24.8044 141.06 24.8044C153.149 24.8044 163.004 33.9413 163.004 46.6017ZM153.378 46.6017C153.378 38.7708 147.663 33.386 141.027 33.386C134.391 33.386 128.675 38.7708 128.675 46.6017C128.675 54.3677 134.391 59.8174 141.027 59.8174C147.695 59.8174 153.378 54.3353 153.378 46.6017Z" fill="#FFBA40"/>
<path d="M35.1187 58.8386C21.3544 58.8386 10.5801 47.8093 10.5801 34.1368C10.5801 20.4648 21.3544 9.43549 35.1187 9.43549C42.543 9.43549 47.9629 12.3395 51.9706 16.0596L58.5738 9.50097C52.9894 4.18221 45.5324 0.135254 35.1187 0.135254C16.2631 0.135778 0.396286 15.4074 0.396286 34.1368C0.396286 52.8661 16.2631 68.1383 35.1187 68.1383C45.3025 68.1383 52.9894 64.81 59.0009 58.6102C65.1765 52.4753 67.0817 43.8608 67.0817 36.8779C67.0817 34.6915 66.8191 32.4402 66.5233 30.776H35.1187V39.8473H57.4896C56.8325 45.5254 55.0259 49.4084 52.365 52.0511C49.1457 55.2819 44.0543 58.8386 35.1187 58.8386Z" fill="#3686F7"/>
</g>
<defs>
<clipPath id="clip0_38_1472">
<rect width="270" height="88" fill="white"/>
</clipPath>
</defs>
</svg>
