<svg width="166" height="166" viewBox="0 0 166 166" fill="none" xmlns="http://www.w3.org/2000/svg">
<g clip-path="url(#clip0_38_1479)">
<path d="M131.583 140.097C127.187 142.245 122.192 142.835 117.417 141.771C114.166 141.032 111 139.959 107.969 138.569L101.274 135.83C95.4414 134.005 89.215 133.847 83.2974 135.373H82.6888C76.7918 133.695 70.5234 133.854 64.7193 135.83C62.4368 136.59 60.2995 137.656 58.017 138.569C54.9737 139.945 51.7713 141.162 48.5758 141.923C43.8002 142.976 38.8091 142.386 34.4104 140.249L33.8018 139.945C33.6496 139.945 33.6496 139.945 33.6496 140.097C36.0945 142.609 39.0789 144.531 42.3767 145.719C45.6745 146.906 49.1994 147.328 52.6843 146.952C56.9468 146.372 61.0154 144.807 64.5671 142.38L70.965 138.112C73.3526 136.568 76.2507 136.021 79.0368 136.59C80.5584 136.743 79.3411 137.503 79.1889 137.656C75.3585 139.508 71.7328 141.756 68.3713 144.365C66.0888 146.032 61.9734 149.995 61.9734 149.995L65.0167 152.582L68.3713 148.93C72.4835 144.653 77.2056 141.007 82.3844 138.112C82.582 137.964 82.8223 137.884 83.0692 137.884C83.3161 137.884 83.5564 137.964 83.7539 138.112C88.9328 141.007 93.6549 144.653 97.7671 148.93L101.122 152.582L104.165 149.995L97.7671 144.358C94.4075 141.752 90.7841 139.506 86.9563 137.656C86.652 137.503 85.5868 136.743 87.1085 136.59C89.8475 135.982 92.7387 136.59 95.1803 138.112L101.578 142.38C105.128 144.803 109.195 146.366 113.454 146.945C116.2 147.256 119.091 147.104 121.83 146.336C125.835 145.143 129.493 143.003 132.496 140.097C132.496 140.097 132.344 139.945 132.191 139.945L131.583 140.097ZM146.502 126.845C144.576 128.314 142.415 129.446 140.111 130.193C136.909 131.112 133.402 131.714 130.054 131.714C125.641 131.873 121.374 132.178 116.961 132.786C116.657 132.786 116.504 132.786 116.657 132.634C120.461 131.112 123.504 128.069 125.185 124.403L129.445 115.73V115.419C129.141 115.571 124.88 119.23 122.895 121.056L115.737 128.062C112.523 130.817 108.721 132.797 104.622 133.851H104.469L104.317 134.004L112.541 135.982C116.064 137.022 119.688 137.685 123.352 137.96C127.886 138.406 132.458 137.624 136.586 135.695C140.714 133.766 144.246 130.762 146.813 126.997C146.813 126.845 146.654 126.845 146.502 126.845ZM159.906 106.441C157.744 109.065 155.176 111.325 152.298 113.136C149.857 114.81 147.27 116.179 144.524 117.404C141.067 118.8 137.835 120.697 134.93 123.034L134.322 123.497C134.17 123.497 134.17 123.497 134.17 123.338C134.17 123.186 138.735 118.621 140.111 109.021C140.263 105.521 140.872 102.173 141.633 98.8185V98.5142C138.468 102.433 135.996 106.863 134.322 111.614L131.583 119.382C130.511 122.882 128.539 126.084 125.946 128.671L125.641 128.975V129.127C125.946 129.127 126.25 128.975 126.554 128.975L135.387 127.149C140.241 126.368 144.838 124.435 148.791 121.512C152.849 118.58 156.14 114.713 158.385 110.238C158.993 109.028 159.45 107.803 159.906 106.586C160.211 106.282 160.059 106.282 159.906 106.434M165.696 83.588C164.291 87.7618 161.885 91.528 158.689 94.5579C155.064 98.1133 151.705 101.93 148.639 105.977C148.639 106.129 148.335 105.977 148.487 105.825C149.707 101.625 150.019 97.2136 149.4 92.884C148.791 89.2251 147.27 85.2688 146.813 80.849L146.654 80.6969C146.654 80.849 146.502 81.0012 146.502 81.1534C145.589 84.0265 144.977 86.9865 144.676 89.9859C144.524 93.6449 145.132 98.362 144.828 102.021C144.524 106.282 144.219 110.701 142.241 114.506V114.81L151.378 109.18C155.136 106.779 158.393 103.674 160.972 100.036C164.282 95.364 166.041 89.7702 166 84.0445V83.4359C165.848 83.4359 165.696 83.588 165.696 83.588ZM155.943 86.0296C156.1 86.0296 156.1 86.0296 155.943 86.0296C155.943 84.8054 155.943 83.588 155.798 82.3707C155.494 78.11 152.9 74.6033 150.617 70.9513C149.063 68.622 147.687 66.178 146.502 63.6404C146.502 63.6404 146.35 63.4882 146.198 63.4882C146.198 63.7925 146.198 65.162 146.35 65.9229C147.111 72.0095 148.632 78.11 150.922 83.8924C152.291 87.5513 152.748 91.3624 152.443 95.1665C152.443 95.4709 152.443 95.4709 152.596 95.623C153.965 93.6449 156.711 90.8989 158.385 88.7686C160.059 86.6383 169.196 76.2771 164.783 61.9665C164.631 61.3509 164.326 60.7423 164.022 60.1336L163.87 60.2858C163.87 70.6469 158.841 75.0598 156.863 82.0733C156.482 83.373 156.177 84.6941 155.95 86.0296M156.102 64.7055L155.189 62.2709L154.581 60.8944C153.042 58.1263 150.909 55.7334 148.335 53.8879C146.234 52.1217 144.389 50.0734 142.85 47.8012H142.393C142.546 48.2577 143.915 52.8227 144.828 54.9599C146.35 57.8511 148.183 60.7423 150.313 63.1839L150.77 63.7925C153.352 67.297 155.332 71.1034 156.711 75.2119C156.711 75.3641 156.863 75.3641 156.863 75.3641L159.45 67.4445C160.363 64.7055 161.124 61.8074 161.732 58.9163C162.652 52.0688 160.515 43.3814 156.559 38.5121C156.559 38.5121 156.407 38.6574 156.407 38.8164L156.559 39.4251L156.863 40.3381C157.624 43.9901 157.776 47.9464 157.015 51.6123C156.407 54.5034 156.254 57.5468 156.254 60.5901C156.254 61.0466 156.559 64.8577 156.559 65.0099C156.559 65.162 156.407 65.0099 156.254 65.0099M143.915 26.4771C145.132 27.6944 146.198 29.0639 146.813 30.7378C147.878 33.3315 148.183 37.1357 148.944 40.0338L150.313 45.0553C150.313 45.2074 150.161 45.3596 150.009 45.2074C147.702 42.4458 144.913 40.1257 141.778 38.3599C139.654 37.1357 137.974 35.4619 136.452 33.6359L135.691 32.5707C135.691 32.5707 135.539 32.4185 135.387 32.5707V33.0272C136.148 36.3749 137.669 39.5773 140.111 42.1572C142.089 43.9901 144.219 45.6639 146.198 47.3447C148.821 49.5879 151.265 52.0323 153.509 54.6556C153.509 54.6556 153.661 54.8078 153.661 54.6556V52.214L153.813 44.9031V42.4684C153.813 40.0338 153.356 37.44 152.443 35.1575C150.922 31.3534 148.031 28.31 144.524 26.4771C144.372 26.3249 144.067 26.3249 143.763 26.1728C143.763 26.1728 143.763 26.3249 143.915 26.4771ZM128.235 19.3184C130.365 21.2965 132.198 23.5859 133.872 26.0206C135.394 28.4553 137.068 30.5856 139.198 32.5707C140.574 33.9402 144.683 37.1357 145.748 38.0487C145.596 36.8314 143.618 28.1579 138.285 23.8903C135.205 21.4122 131.618 19.6412 127.779 18.7028V19.014L128.235 19.3184ZM42.9387 137.96C46.5054 137.691 50.0314 137.027 53.452 135.982L61.669 134.004H61.8212C61.8212 134.004 61.8212 133.851 61.669 133.851H61.5169C57.3865 132.754 53.5412 130.78 50.2427 128.062L43.0908 121.215L36.5408 115.571V115.882C37.1494 116.795 39.4388 121.816 40.8083 124.562C42.4822 128.367 45.5255 131.265 49.3366 132.786C49.4888 132.938 49.3366 132.938 49.0323 132.938C44.6873 132.353 40.3145 131.997 35.9321 131.873C32.5844 131.873 29.0846 131.265 25.8822 130.352C23.5752 129.603 21.4118 128.469 19.4843 126.997H19.1799C22.2177 131.279 26.4562 134.564 31.3602 136.438C35.0995 137.626 39.0196 138.141 42.9387 137.96ZM39.4388 128.975C39.7432 128.975 39.8953 129.127 40.3518 129.127V128.975L40.0475 128.671C37.4889 126.042 35.5613 122.865 34.4104 119.382L31.6714 111.614C29.9975 106.863 27.5251 102.433 24.3605 98.5142V98.8185C25.2735 102.173 25.73 105.528 26.0343 109.028C27.4038 118.469 31.9758 123.034 31.9758 123.186C31.9758 123.338 31.9758 123.497 31.8236 123.338L31.208 122.882C28.3033 120.545 25.071 118.648 21.6146 117.251C18.9004 116.069 16.3004 114.641 13.8472 112.984C10.9691 111.171 8.40038 108.908 6.23885 106.282H6.07285C6.52935 107.499 6.98585 108.723 7.59451 109.941C9.87701 114.353 13.2316 118.31 17.347 121.215C21.3033 124.258 25.8753 126.236 30.7446 126.845C33.6427 127.606 36.5408 128.367 39.4388 128.975ZM14.9054 109.18L24.0493 114.81C24.0493 114.81 24.2014 114.658 24.2014 114.506C22.2163 110.549 21.9189 106.282 21.6077 102.021C21.3033 98.2168 21.912 93.6449 21.7598 89.9859C21.4589 86.9366 20.8471 83.9261 19.9338 81.0012C19.9338 80.849 19.7817 80.6969 19.7817 80.5447L19.6295 80.6969C19.3252 85.1166 17.6513 89.0729 17.0427 92.7319C16.4347 97.0618 16.7457 101.471 17.9557 105.673C18.1078 105.825 17.8035 105.977 17.8035 105.825C14.7796 101.744 11.4153 97.9259 7.74668 94.4126C4.56501 91.4324 2.16582 87.7149 0.760845 83.588C0.760845 83.588 0.601762 83.4359 0.449595 83.4359C0.297428 83.4359 0.449595 83.7402 0.449595 84.0445C0.449595 89.6816 2.13035 95.3187 5.47801 100.036C7.91268 103.543 11.1151 106.745 14.9193 109.18M13.2454 95.7752C13.3976 95.623 13.3976 95.623 13.3976 95.3187C13.0933 91.5145 13.5498 87.5513 15.0714 84.0445C17.2087 78.2622 18.7303 72.3208 19.6433 66.075C19.6433 65.3142 19.7955 63.9447 19.7955 63.6404C19.6433 63.6404 19.6433 63.6404 19.6433 63.7925C18.4585 66.3301 17.0828 68.7741 15.5279 71.1034C13.0933 74.4511 10.6586 78.11 10.3543 82.3776C10.1929 83.5896 10.1929 84.8176 10.3543 86.0296C10.3543 86.0296 10.3543 86.1818 10.2021 86.1818V86.0296L9.13693 82.3707C6.98585 75.3641 2.12343 70.9513 2.12343 60.5901L1.97126 60.4379C1.66693 61.0466 1.51476 61.6553 1.21043 62.2709C-3.20932 76.5884 5.77543 86.9426 7.60143 89.0729C9.42743 91.2033 11.8759 93.797 13.2454 95.7752ZM6.84751 67.2924L9.44126 75.2119C9.44126 75.2119 9.59343 75.2119 9.59343 75.0598C10.9629 70.9513 13.0933 67.1402 15.5279 63.6404L15.9844 63.0317C18.1194 60.4402 19.9477 57.6966 21.4693 54.8009C22.3823 52.6705 23.7518 48.1055 23.9109 47.649H23.4475C21.9258 49.9315 20.0998 51.9097 17.9695 53.7357C15.3065 55.589 13.1153 58.0408 11.5716 60.8944C11.4194 61.3509 11.1151 61.8074 10.9629 62.2709L10.0499 64.8577C10.0499 64.8577 9.89776 65.162 9.89776 64.8577C9.89776 64.5534 10.2021 61.0535 10.2021 60.4379C10.2021 57.3946 9.89776 54.3513 9.2891 51.4532C8.58468 47.7228 8.63642 43.889 9.44126 40.179C9.44126 39.8816 9.59343 39.5773 9.7456 39.2729C9.7456 39.1208 9.89776 38.8164 9.89776 38.6574C9.89776 38.4983 9.89776 38.5052 9.7456 38.353C5.77543 43.2293 3.49293 52.0619 4.40593 58.7641C5.16676 61.6553 5.93451 64.5534 6.84751 67.2924ZM12.3255 45.0553L12.4777 52.3662V54.6487H12.6298C14.7602 51.9097 17.1948 49.475 19.7886 47.1925L25.8753 42.005C28.2437 39.4428 29.8758 36.2883 30.5993 32.875V32.4185H30.4472L29.6863 33.4837C28.2627 35.3573 26.5095 36.9558 24.5127 38.2009C20.8538 40.4834 18.4191 42.1641 16.2818 45.0553C16.1366 45.2074 15.9775 45.2074 16.1366 44.9031L17.5061 39.8816C18.2669 36.9835 18.5713 33.1724 19.6364 30.5856C20.2451 29.0639 21.3103 27.5423 22.5276 26.3249V26.0206C22.2233 26.0206 22.0711 26.1728 21.7668 26.3249C17.9626 28.3031 15.2167 31.5055 13.695 35.1575C12.782 37.44 12.1733 39.8816 12.3255 42.4684V45.0553ZM20.3973 37.9034L27.0995 32.4254C29.0777 30.4404 30.9037 28.31 32.4253 25.8754C34.0128 23.4114 35.907 21.1593 38.0624 19.1731L38.5189 18.7166V18.3984C34.659 19.2777 31.06 21.0523 28.0125 23.579C22.3754 27.9919 20.5494 36.6723 20.4042 37.8965M81.6236 85.1097C82.0801 84.4941 81.0149 84.0376 80.7106 85.1097C80.4063 86.1749 81.1671 85.8705 81.6236 85.1097ZM93.2021 58.3007C92.7387 58.1485 91.0649 60.1267 91.3692 60.431C92.1694 59.9087 92.805 59.17 93.2021 58.3007ZM93.5064 57.9964C93.8108 58.1485 94.8759 57.5399 94.7238 57.3877C94.5716 57.2355 93.2021 56.6269 93.2021 56.9312C93.2021 57.5399 93.3543 57.8442 93.5064 57.9964ZM114.063 76.8789C114.671 76.7267 114.519 75.8137 114.063 75.8137C113.606 75.8137 112.998 76.5745 113.15 76.5745C113.302 76.5745 113.758 77.031 114.063 76.8789ZM106.6 56.6269C106.143 56.6269 105.991 57.0834 106.448 57.3877C106.904 57.5399 107.208 57.3877 107.513 57.2355C107.689 57.1554 107.84 57.0275 107.948 56.8661C108.055 56.7047 108.115 56.5164 108.121 56.3225C108.121 55.866 107.513 55.2574 107.817 54.953C108.121 54.6487 108.578 55.1052 108.889 54.953C109.2 54.8009 109.346 54.4965 109.346 54.1922C109.346 53.8809 109.193 52.9679 108.585 52.9679C107.976 52.9679 107.361 54.1922 107.361 54.1922C107.29 54.3609 107.254 54.5419 107.254 54.7248C107.254 54.9076 107.29 55.0886 107.361 55.2574C107.513 55.866 107.361 56.6269 106.6 56.6269ZM116.657 56.779C116.657 57.0834 117.417 59.0615 117.57 59.518C117.722 59.9745 117.874 61.6484 118.178 61.4962C118.483 61.344 118.483 60.431 118.33 59.9745C118.162 58.8909 117.907 57.8224 117.57 56.779C117.417 56.1704 116.352 53.8809 116.048 54.0331C115.737 54.1922 116.504 55.5548 116.657 56.1704C116.809 56.779 116.504 56.4747 116.657 56.779ZM111.324 30.883C111.78 31.0352 111.78 30.1222 111.019 29.5135C110.259 28.9049 109.041 29.2092 109.346 29.5135C109.954 29.97 110.563 30.5787 111.324 30.883ZM88.478 24.3399C87.4128 23.7312 88.3259 22.8182 87.565 22.2026C86.652 21.8983 85.739 22.0504 85.1234 22.6591C84.3626 23.579 86.0433 23.2678 86.4998 23.579C86.9563 23.8834 88.478 24.9485 88.6302 24.7964C88.7824 24.6442 88.6302 24.3399 88.478 24.3399ZM94.5647 21.2965C93.2021 20.6809 88.1737 20.6809 88.3259 22.0574C88.478 23.4338 91.217 22.0574 91.9779 22.0574C92.7387 22.0574 95.782 21.8983 94.5716 21.2965M80.7106 80.0813C80.4063 79.9291 79.9498 80.2334 79.7976 79.9291C79.6454 79.6248 79.3411 79.7769 79.3411 79.9291C79.3411 80.0813 79.1889 80.3856 79.4933 80.6899C79.662 80.8369 79.8782 80.9178 80.1019 80.9178C80.3257 80.9178 80.5419 80.8369 80.7106 80.6899C80.7802 80.6038 80.8182 80.4964 80.8182 80.3856C80.8182 80.2748 80.7802 80.1674 80.7106 80.0813ZM77.8194 69.8792C78.2759 69.8792 78.2759 69.5749 78.4281 69.5749C78.5803 69.5749 78.4281 69.8792 78.8846 69.8792C79.3411 69.8792 79.7976 68.8071 78.4281 68.8071C77.356 68.8071 77.5082 69.8792 77.8194 69.8792ZM79.6454 71.0965C78.8846 70.9444 79.0368 71.4009 78.4281 71.4009C77.5082 71.553 78.2759 70.7922 77.9716 70.4879C77.8194 70.3357 77.356 71.0965 77.2108 71.553C77.2108 71.8574 77.2108 72.466 77.5082 72.6182L80.4063 72.9225C81.0149 72.9225 80.4063 71.2487 79.6454 71.0965ZM70.2042 80.9943C70.5085 80.9943 70.6607 80.0813 70.5085 79.6248C70.3564 79.1683 69.4364 79.4726 69.4364 79.7769C69.4364 80.0813 70.0589 80.9943 70.2042 80.9943ZM58.017 80.9943C58.017 80.6899 58.017 79.4726 57.7127 79.1683C57.4083 78.8639 57.4083 79.3204 57.2562 79.3204C57.104 79.3204 57.104 78.7118 56.9519 78.7118C56.7997 78.7118 56.9518 79.6248 57.2562 80.2334C57.5605 80.8421 58.017 81.7551 58.017 80.9943ZM57.7127 78.2553C58.017 77.3423 58.1692 76.427 58.1692 75.5094C58.1692 74.7485 57.7127 74.1399 57.5605 74.1399C57.4083 74.1399 57.5605 74.5964 57.7127 75.3572C57.7127 76.118 57.4083 76.8789 57.2562 77.6397C57.2562 77.7988 57.5605 78.5596 57.7127 78.2553ZM42.1778 112.368C64.8645 135.062 101.426 135.062 124.12 112.368C146.813 89.6747 146.806 53.1201 124.12 30.4265C101.433 7.73295 64.8714 7.73986 42.1778 30.4265C19.4843 53.1132 19.4843 89.8269 42.1778 112.368ZM27.7082 72.6251H36.5408C36.6929 77.1947 37.4538 81.6122 38.8233 85.8774C38.3413 85.7376 37.8805 85.5328 37.4538 85.2688C36.8451 84.9644 36.3886 85.4209 36.2364 85.4209C35.6278 85.4209 34.8669 84.9644 34.8669 85.4209C34.8669 85.8774 35.4756 85.5731 35.4756 85.8774C35.4756 86.1818 33.9539 86.1818 33.8018 85.5731C33.6496 84.9644 33.3453 84.3489 33.1931 85.1166C33.0409 85.8844 32.4323 85.7253 32.1279 85.8774C31.9758 86.0296 31.8236 86.3339 31.8236 86.6383C31.8236 86.9426 31.0628 86.7904 31.0628 87.2469C31.0628 87.7034 31.5193 87.8556 31.6714 88.3121C31.8236 88.7686 32.2801 89.0729 31.9758 89.2251C31.6714 89.3773 31.8236 89.0729 31.5193 89.2251C31.2149 89.3773 32.8888 93.9492 33.1931 93.7901C33.4974 93.631 32.7366 92.2684 32.7366 91.6598C32.7366 91.0511 32.8888 90.8989 33.3453 90.5946C33.8018 90.2903 35.0191 92.4206 35.4756 92.1163C35.9321 91.8119 35.3234 91.5076 35.7799 91.3554C36.2364 91.2033 37.6059 93.3405 38.0624 92.7319C38.3668 92.2684 38.6711 93.0362 38.6711 93.1884C39.1345 93.9492 39.8953 93.9492 40.3518 94.8622C40.8083 95.7752 41.8735 97.449 42.6343 97.449C43.3952 97.449 42.9387 96.6882 43.243 96.6882C43.5473 96.6882 43.8517 97.7534 44.3082 98.362C44.6303 98.8311 45.1208 99.1581 45.6777 99.275C46.7428 100.651 47.9602 102.021 49.1844 103.39L42.9387 109.636C33.2678 99.7322 27.8091 86.4672 27.7082 72.6251ZM78.1238 59.9814L77.5082 60.2858C76.6682 60.6629 75.8969 61.1771 75.2257 61.8074L68.9799 55.5686C72.6388 52.3662 77.2108 50.388 81.9279 50.2359V59.0684C80.8338 59.1798 79.7593 59.4356 78.7324 59.8293C79.0368 59.2206 79.6454 58.6119 79.6454 58.6119C79.6454 58.6119 78.5803 59.2206 78.1238 59.9814ZM73.3997 74.4511V74.7554C73.3997 74.4511 73.2475 74.2989 73.0953 73.9946C72.9432 73.8424 72.791 73.6903 72.6388 73.6903H71.878L71.5737 73.8424H69.4364C69.1321 73.8424 68.9799 73.8424 68.9799 73.6903C68.8278 73.0816 69.7408 73.5381 70.3563 71.7121C70.5085 71.5599 70.5085 71.2556 70.6607 71.1034L70.965 70.6469L71.1172 70.4948C71.4215 70.1904 71.7258 70.1904 72.0302 70.1904H72.3345L72.6388 70.4948L73.0953 71.4078C73.2475 71.5599 73.3997 71.5599 73.3997 71.7121C73.629 71.8255 73.8353 71.9802 74.0083 72.1686L74.1605 72.3208V72.4729C74.3127 72.6251 74.3127 72.6251 74.4648 72.6251H75.0735C75.3779 72.4729 75.3779 72.6251 75.53 72.6251V72.7773C75.53 72.9294 75.53 72.9294 75.3778 73.0816C75.3778 73.2338 75.2257 73.2338 75.2257 73.3859C75.0735 73.5381 74.9214 73.6903 74.7692 73.6903C74.4649 73.6903 74.1605 73.5381 74.0083 73.5381C73.8562 73.5381 73.704 73.5381 73.704 73.6903V74.4511M56.9519 89.0729C56.517 88.2274 56.3074 87.2841 56.3432 86.3339C56.3266 85.4168 56.0638 84.521 55.5824 83.7402C55.4302 83.1315 55.278 82.5229 55.278 81.9142C55.278 80.849 54.3581 81.1534 54.3581 80.849C54.3581 80.5447 55.1189 80.849 55.1189 80.5447C55.1189 80.2404 54.2059 79.023 53.4451 78.7187C52.6843 78.4144 52.9886 77.9579 52.9886 77.5014C52.9886 77.0449 52.9886 76.5814 52.6843 76.2771C52.5321 75.6684 52.6843 74.6033 53.4451 74.6033C53.7494 74.6033 54.2059 74.9076 54.6693 74.6033C55.1328 74.2989 54.8215 73.3859 54.8215 72.6251H59.0822C59.0822 73.2338 59.2344 73.9946 59.2344 74.6033C58.93 74.7554 58.7779 75.0598 58.93 75.2119C59.0822 75.3641 59.2344 75.5163 59.3865 75.3641C60.1474 79.7839 62.1255 83.8924 65.1758 87.2469L58.93 93.4927C58.4735 93.0362 58.017 92.4206 57.5605 91.8119V91.3554C57.5605 90.2903 56.7997 89.6816 56.4954 88.7686M51.0104 78.4144C50.5941 76.5095 50.3396 74.5729 50.2496 72.6251H53.9016C53.5973 73.0816 52.8364 73.5381 52.6843 73.9946C52.5321 74.4511 51.6191 75.9728 52.2278 76.5814C53.5973 78.1031 51.9234 78.7187 51.0104 78.4144ZM51.7713 100.956L51.0104 101.717L49.9453 100.651C50.5539 100.347 51.1626 100.499 51.7713 100.956ZM61.2125 61.8074C61.0604 61.8074 61.0603 61.9665 60.9082 61.9665C60.4517 62.423 59.2344 62.2709 59.3865 62.7274C59.5387 63.1839 62.7411 61.6553 62.7411 61.9665C62.7411 62.2778 61.3647 62.7274 60.4586 63.1839C59.5525 63.6404 59.2343 64.4012 57.7127 64.4012C56.9518 64.4012 56.6475 65.0099 56.3432 65.4664C55.9307 66.0396 55.574 66.6511 55.278 67.2924C55.2873 68.2421 55.0791 69.1814 54.6693 70.0383H50.2427C50.5479 62.2198 53.6277 54.7655 58.93 49.0116L65.1758 55.2643C63.6561 57.3187 62.3293 59.509 61.2125 61.8074ZM67.0018 57.2424L72.4867 62.7274H71.878C71.2694 62.7274 71.2693 62.2709 70.8128 62.2709C69.8929 62.423 69.7408 62.7274 69.5886 62.5752C68.9174 61.9449 68.1461 61.4306 67.3061 61.0535C66.3099 60.7143 65.2221 60.7663 64.2628 61.1988C64.1106 61.1988 64.1106 61.3509 63.9584 61.3509C65.0236 59.9814 66.0888 58.6119 67.0018 57.2424ZM59.3934 68.3575C59.3934 68.9662 59.2344 69.5818 59.2344 70.1904H56.0389C55.8867 69.7339 56.0388 69.2705 56.3432 68.814C56.6475 68.2054 57.4083 67.901 58.1692 68.0532C58.5864 68.1014 59.0026 68.2037 59.3934 68.3575ZM62.1255 75.5163L62.4368 75.9728C62.7411 76.2771 63.0454 76.5814 63.3498 76.4293C63.6541 76.2771 64.4149 76.4293 64.5671 76.4293C65.0236 76.5814 65.3279 76.8858 65.6323 77.1901C65.9366 77.6535 66.5453 77.3492 67.0018 77.6535C67.4583 77.9579 67.9148 78.2622 67.3061 78.5665C66.6974 78.8709 67.9148 79.4795 68.0669 79.4795C68.2191 79.4795 68.3713 79.1752 68.3713 78.7187C68.3713 78.5665 68.6756 77.9579 69.1321 78.11C69.5886 78.2622 70.965 79.936 71.4146 79.3274C71.878 78.7187 71.5737 77.9579 71.7258 77.6535C71.7258 77.5014 71.878 77.3492 72.0302 77.3492C72.4867 78.11 72.791 78.7187 73.3997 79.3274L67.1539 85.5731C64.5097 82.7992 62.7581 79.296 62.1255 75.5163ZM67.0018 53.7357L60.9151 47.4969C66.6664 42.2001 74.1151 39.123 81.9279 38.8164V47.649C76.443 47.8012 71.2694 49.9315 67.0018 53.7357ZM59.0822 45.6639L52.8433 39.4251C60.7381 31.9841 71.0906 27.7014 81.9348 27.3901V36.2227C73.4261 36.4924 65.3059 39.8481 59.0891 45.6639M57.2631 47.3447C51.474 53.5787 48.1226 61.6884 47.8218 70.1904H38.9754C39.2867 59.3461 43.5695 48.9937 51.0104 41.0989L57.2631 47.3447ZM47.8149 72.6251C47.8149 74.2989 47.9671 75.8206 48.2714 77.5014C48.1193 77.5014 48.1193 77.0379 47.6628 77.1901C47.2063 77.3423 45.5255 80.2334 44.7647 81.4577C44.156 82.5229 45.069 84.8054 44.156 85.5731C43.2722 85.8662 42.3481 86.0202 41.417 86.0296H41.2648C39.7842 81.8139 38.9607 77.3955 38.8233 72.9294L47.8149 72.6251ZM81.7758 126.845C67.9438 126.561 54.7284 121.068 44.7716 111.462L51.0104 105.216C59.3426 113.121 70.2959 117.676 81.7758 118.012V126.845ZM81.7758 115.571C70.9315 115.259 60.5791 110.977 52.6843 103.536L53.7494 102.477C53.9824 102.662 54.2381 102.815 54.5103 102.934C55.172 103.261 55.9209 103.367 56.6475 103.238C57.2562 103.086 58.4735 102.021 59.2344 102.021C59.9952 102.021 61.2125 102.325 61.9734 101.869C62.7342 101.412 61.5169 99.8837 61.0604 99.1229C60.9082 98.9707 60.9082 98.8185 60.756 98.6664C66.7331 103.714 74.2586 106.563 82.0801 106.738L81.7758 115.571ZM81.7758 104.151C73.9606 103.846 66.5091 100.769 60.756 95.4709L67.0018 89.2251C69.8999 91.8119 73.3997 93.7901 77.356 94.71C75.9865 95.3187 75.3779 96.2317 75.53 96.9925C75.6822 97.7534 74.617 98.2099 74.617 99.1229C74.617 100.036 75.8344 100.645 75.9865 101.564C76.1387 102.021 77.2039 102.782 78.1238 103.39C79.3411 103.695 80.5584 103.847 81.6236 103.695L81.7758 104.151ZM81.4714 91.9641C81.0149 91.6598 80.7106 92.2684 80.1019 92.5728C75.9276 91.9581 72.0159 90.163 68.8278 87.3991L75.0735 81.1534C77.0517 82.675 79.3411 83.7402 81.7758 83.8924C81.7758 84.1967 82.0801 84.501 82.0801 85.1166C82.0801 85.7322 81.6236 86.0296 81.7758 86.3339C81.9279 86.6383 83.2974 86.3339 83.4496 85.8774C83.6018 85.4209 82.9931 85.1166 82.8409 84.6532C82.6888 84.3489 82.6888 84.1967 82.5366 83.8924H83C83.4565 83.8924 83.913 83.8924 84.3695 83.7402C84.4472 83.7313 84.5195 83.6964 84.5748 83.6411C84.6301 83.5859 84.665 83.5135 84.6738 83.4359C84.6738 83.2837 84.826 83.1315 84.826 82.9794C84.826 82.8272 84.9782 82.8272 84.9782 82.675L85.1303 82.8272C85.2825 83.1315 85.5938 84.0445 85.8912 83.8924C86.1886 83.7402 86.3546 82.3707 86.2024 82.0664C86.0543 81.8688 85.9742 81.6285 85.9742 81.3816C85.9742 81.1347 86.0543 80.8944 86.2024 80.6969C86.2024 80.5447 86.3546 79.6317 86.6589 79.7839C86.9633 79.936 86.6589 80.6969 86.6589 81.0012C86.6589 81.4577 86.9633 82.0664 87.4198 81.762C87.7241 81.6099 88.0284 81.1534 88.3328 81.3055C88.6371 81.4577 87.5719 81.762 87.4198 82.0664C87.2676 82.3707 87.8763 82.5229 87.7241 82.675C87.5719 82.8272 87.4198 82.675 87.2676 82.8272C87.1154 82.9794 87.5719 83.8924 87.2676 84.0445C86.9633 84.1967 85.8981 84.501 85.5938 84.6532C85.2894 84.8054 84.9782 84.501 85.1303 84.3489C85.2825 84.1967 85.1304 83.588 84.826 83.588C84.5217 83.588 84.5217 83.7402 84.5217 84.0445C84.5217 84.3489 84.826 84.8054 84.826 84.9644C84.826 85.1235 84.3695 85.2688 84.0652 85.4209C83.7609 85.8774 83.3043 86.3339 82.8478 86.6383C82.3913 86.9426 81.4783 86.9426 81.4783 87.2469C81.4783 87.5513 81.9349 87.5513 82.087 87.7034C82.3914 88.1599 82.5435 88.7686 81.9348 89.0729C81.3262 89.3773 80.5654 88.6164 80.261 88.7686C79.9567 88.9208 79.8045 89.6816 79.6523 90.5946C79.5002 91.5076 81.3262 91.8119 82.2392 91.3554C82.8479 91.0511 82.6957 90.1381 83.3043 89.8338C83.913 89.5294 83.7609 88.9208 84.3695 89.0729C84.9782 89.2251 84.826 88.6164 85.4416 88.6164C86.0572 88.6164 86.0503 89.0729 86.8111 89.2251C88.0284 89.5294 88.0284 90.4424 88.1806 89.9859C88.3328 89.5294 88.4849 89.2251 87.5719 88.9208C86.6589 88.6164 86.2024 87.5513 86.9633 87.8556C87.8763 88.3121 88.6371 88.3121 88.7893 88.7686C88.9414 89.2251 89.8544 89.0729 90.0066 89.5294C90.1588 90.2903 90.7674 89.5294 90.3109 89.0729C89.8544 88.6164 90.0066 88.4643 90.3109 88.1599C90.6153 87.8556 90.7674 88.3121 91.2239 87.7034C91.6804 87.0948 91.0718 87.2469 90.9196 86.9426C90.7674 86.6383 90.9196 84.9644 91.5283 85.2688C92.1369 85.5731 92.7456 85.1166 92.4413 84.9644C92.1369 84.8054 92.5934 83.8924 92.7456 83.8924C92.8978 83.8924 92.7456 84.501 92.8978 84.6532C93.0499 84.8054 94.5785 84.1967 94.7307 84.9644C94.8829 85.7322 93.6655 86.1818 93.3612 86.1818C92.7456 86.1818 92.2891 86.7904 91.8395 87.3991C91.3761 88.0078 90.9196 88.1599 91.2239 88.7686C91.5283 89.3773 92.1369 89.2251 92.7456 88.9208C93.3543 88.6164 93.8177 88.1599 94.122 88.0078C94.7307 87.7034 95.1872 89.5294 94.8829 89.8338C94.5785 90.1381 93.9699 90.2903 93.6655 90.5946C92.7456 91.0511 91.8326 91.5076 90.7674 91.5076C90.1588 91.6598 90.1588 91.8119 90.0066 92.4206C89.8544 93.0293 87.1154 92.5728 86.5068 92.5728C85.8981 92.5728 86.9633 91.2033 86.0503 91.3554L83.3043 91.8119C83.1522 91.8119 82.2323 92.5728 81.4714 91.9641ZM89.5501 106.129C90.3109 106.434 91.0718 107.042 91.5283 107.651C91.9848 108.412 92.1369 108.723 91.8326 109.484C91.0718 110.854 91.3761 111.767 92.8978 112.223C93.8177 112.527 94.122 113.44 94.7307 114.049C91.3444 114.94 87.8691 115.451 84.3695 115.571V106.738C86.0503 106.586 87.8763 106.434 89.557 106.129M84.3695 104.303V103.238C86.3546 102.934 85.8912 104.151 87.2676 103.695C87.4785 103.625 87.7048 103.617 87.9203 103.671C88.1357 103.725 88.3315 103.839 88.4849 103.999C87.1083 104.019 85.734 104.12 84.3695 104.303ZM84.3695 126.997V118.005C88.9845 117.874 93.5538 117.053 97.9262 115.571C98.0784 115.73 98.2305 115.73 98.3827 115.73C98.9879 115.688 99.5687 115.475 100.057 115.114C101.522 114.537 102.906 113.77 104.172 112.832C108.184 110.789 111.877 108.172 115.135 105.064L121.381 111.31C111.483 121.063 98.2305 126.541 84.3764 126.997M109.048 47.3447L111.179 45.2074C111.735 45.8374 112.484 46.2654 113.309 46.4248C114.07 46.5839 114.374 46.8882 114.526 47.649C114.678 48.4099 115.439 48.7142 116.207 48.8664C116.975 49.0185 117.424 49.9315 118.033 49.9315C118.642 49.9315 120.62 52.6705 121.381 53.5835C121.837 54.04 122.446 54.8078 122.902 54.1991C123.359 53.5835 123.359 53.7357 123.663 53.5835C125.98 58.8235 127.273 64.4579 127.474 70.1835H118.642C118.642 68.2054 118.337 66.2272 117.881 64.249C118.194 63.6376 118.351 62.9579 118.337 62.2709C118.337 61.6553 117.729 61.3509 117.272 61.8074C116.963 60.6587 116.556 59.5387 116.055 58.4598C115.896 57.8511 115.744 57.0903 115.591 56.4816C115.591 56.3294 115.287 56.1773 114.983 55.8729C114.678 55.2643 114.526 54.8078 114.222 54.3513C114.678 54.04 114.831 53.2792 114.222 53.4314C113.309 53.5835 113.918 52.9749 113.613 52.6705C113.309 52.3662 113.309 52.6705 113.157 52.8227C111.975 50.9972 110.653 49.2673 109.2 47.649V47.4969C108.896 47.4969 108.896 47.3447 109.048 47.3447ZM114.374 98.9707C114.07 98.362 113.918 97.6012 113.613 96.9925C113.461 96.3839 112.244 96.3839 112.244 96.6882C112.244 97.2969 112.244 97.9055 112.092 98.5142V98.6664L108.896 95.4709C114.685 89.2369 118.036 81.1272 118.337 72.6251H127.17C126.886 83.4303 122.597 93.7445 115.135 101.564L114.678 101.108C114.794 100.381 114.688 99.6364 114.374 98.9707ZM107.063 105.064C107.52 104.303 108.44 102.934 108.896 102.173C109.353 101.412 107.672 100.347 106.759 100.036C105.846 99.7246 105.846 99.275 105.846 98.5142C106.302 98.2099 106.759 97.7534 107.215 97.2969L113.461 103.543C111.4 105.483 109.156 107.218 106.759 108.723C106.607 108.419 107.672 107.347 107.976 106.89C108.28 106.434 106.759 105.825 107.063 105.064ZM110.867 68.6619C110.106 67.5967 111.179 67.4445 112.244 66.988C112.852 66.6837 113.613 67.1402 113.613 66.8359C113.613 66.5315 113.918 65.9229 114.222 65.7707C114.526 65.6185 114.983 65.3142 115.135 65.0099C115.135 65.3142 115.287 65.6185 115.287 65.9229C114.995 66.433 114.838 67.009 114.831 67.5967C114.831 68.0532 114.831 68.6619 115.287 67.5967C115.287 67.4445 115.439 67.4445 115.439 67.2924C115.744 68.3575 115.744 69.2705 115.744 70.1904H109.2V70.0383C109.657 69.2774 111.331 69.4227 110.874 68.6619M112.092 56.1773C112.092 56.1773 112.092 56.3294 111.939 56.3294C111.787 56.4816 111.026 55.2643 111.026 56.1773C111.026 57.0903 111.331 57.3946 111.939 57.5468C112.548 57.6989 112.244 58.0033 112.7 58.1554C112.852 58.1554 113.157 58.3076 113.309 58.4598C114.07 60.1336 114.526 61.8074 114.983 63.6404C114.753 63.7537 114.547 63.9085 114.374 64.0969C114.07 64.4012 114.222 65.0099 113.918 65.4664C113.461 66.2272 113.309 66.6837 112.092 66.3794C111.331 66.075 111.939 65.162 112.092 64.4012C112.244 63.6404 112.548 63.7925 112.548 63.336C112.548 62.8795 111.026 61.1988 110.266 61.8144C109.505 62.423 109.657 63.0317 109.048 63.6404C108.744 63.9447 108.44 63.9447 107.976 63.6404C107.513 63.336 107.367 63.0317 107.52 62.7274C107.672 62.423 106.454 61.0466 105.998 60.4449C105.708 60.0732 105.339 59.7706 104.918 59.5589C104.497 59.3472 104.034 59.2316 103.563 59.2206C102.734 57.8071 101.763 56.4815 100.665 55.2643L106.911 49.0185C109.048 51.301 110.715 53.5835 112.092 56.1773ZM101.578 60.4379L101.281 60.8944C101.129 61.1988 100.361 60.5901 100.209 60.7423C100.057 60.8944 101.281 62.423 100.057 61.9665C98.8392 61.5031 99.6 61.5031 99.6 61.0466C99.6 60.5901 98.5348 60.2858 99.1435 59.9814C99.7522 59.6771 99.1435 59.2206 99.7522 59.0684C100.361 58.9163 100.209 58.3076 99.4479 58.1554C98.687 58.0033 98.8392 59.8293 98.3827 59.5249C97.9262 59.3728 97.4697 59.3728 97.0132 59.3728L99.1435 57.2424C99.3774 57.3647 99.6414 57.4175 99.9044 57.3946C100.209 58.6119 100.976 59.5249 101.585 60.4379M99.1435 91.3554C100.057 91.5076 101.129 91.6598 102.042 91.9641C102.65 92.2684 103.107 92.884 103.563 92.1163C104.476 90.7468 105.085 89.2251 105.389 87.5513C105.694 85.2688 105.237 84.5079 104.933 84.5079C104.628 84.5079 104.02 85.1166 103.411 85.1166C103.107 85.1166 103.107 85.7253 103.107 86.1818C103.107 86.6383 102.498 87.0948 102.346 86.7904C102.194 86.4861 101.889 86.6383 102.042 86.9426C102.194 87.2469 100.824 87.0948 100.209 86.7904C99.2957 86.3339 101.281 86.3339 102.194 85.5731C102.955 84.9644 103.715 84.1967 104.476 83.4359C104.933 82.675 104.933 81.762 105.694 81.1534C106.454 80.5447 107.672 80.6969 107.824 79.7839C107.976 78.8709 108.128 79.023 108.585 79.1752C109.041 79.3274 113.309 79.023 113.309 77.6535C113.309 77.0379 112.396 76.2771 111.483 76.1319C110.874 76.1319 110.722 74.9076 110.418 74.2989C110.122 73.6577 109.765 73.0462 109.353 72.4729H115.744C115.439 80.2882 112.361 87.7396 107.063 93.4927L106.911 93.3405V92.7319C107.063 91.5076 106.15 89.5294 105.846 89.8338C105.541 90.1381 105.846 90.1381 104.933 91.5076C104.628 91.9641 104.172 92.7319 103.563 92.7319C102.955 92.7319 102.955 92.4206 102.042 92.5728C101.234 92.7176 100.407 92.7176 99.6 92.5728C98.1492 92.0976 96.7677 91.4325 95.4915 90.5946C95.6437 90.4424 96.1002 90.7468 96.1002 90.2903C96.1002 89.8338 98.5348 91.2033 99.1435 91.3554ZM123.054 109.788L116.816 103.543C124.72 95.2104 129.275 84.2572 129.611 72.7773H138.589C138.292 86.636 132.739 99.8637 123.054 109.781M138.589 70.1904H129.605C129.455 63.6416 127.898 57.2017 125.04 51.3079L125.192 51.1489C125.8 50.5402 122.294 45.9683 121.685 45.5118C121.076 45.0553 120.468 44.2944 119.707 43.5336C118.47 42.3225 117.349 40.9979 116.359 39.5773L122.902 33.0272C132.692 42.9528 138.306 56.2523 138.589 70.1904ZM84.3695 15.9638C98.2436 16.2769 111.499 21.7661 121.533 31.3534L115.446 37.44C115.135 37.2879 114.831 37.1357 114.983 36.8314C115.287 36.3749 114.526 36.3749 114.374 35.1575C114.024 33.9307 113.204 32.8917 112.092 32.2664C111.331 31.8099 110.874 31.2012 110.113 30.8899C109.353 30.5856 107.831 29.6726 107.07 29.9769C106.58 30.1494 106.067 30.2518 105.548 30.2813C99.0726 26.8147 91.8657 24.9371 84.5217 24.8033L84.3695 15.9638ZM84.3695 27.3901C90.9196 27.5423 97.1653 29.2161 103.107 32.1142C103.283 33.1127 103.701 34.053 104.324 34.8532C104.628 35.614 105.085 36.2227 105.541 36.9835C105.998 37.44 105.694 38.353 105.846 39.1208C105.846 39.4251 106.15 39.7294 106.302 40.0338V41.2511C106.302 41.4033 106.911 41.4033 107.367 41.0989C107.824 40.7946 108.128 40.1859 108.744 40.3381C109.359 40.4903 110.113 41.7076 110.57 42.4684L107.672 45.3596C107.367 44.7509 107.063 43.9901 107.215 43.9901C107.367 43.9901 107.672 44.1423 107.824 44.1423C108.44 44.1423 107.367 43.6858 107.367 43.5336C106.911 43.0771 106.911 42.4684 106.302 42.0119C105.694 41.5554 104.781 41.8598 104.476 41.2511C103.88 40.1656 103.048 39.2274 102.042 38.5052C101.889 38.5052 103.259 40.1859 102.802 40.4903C102.346 40.7946 100.665 39.4251 100.52 39.7294C100.361 40.0338 102.346 40.7946 102.955 41.4033C103.259 41.7076 103.868 42.6206 104.476 43.3814C98.674 38.9762 91.6502 36.4755 84.3695 36.2227V27.3901ZM84.3695 38.6643C92.1871 38.9676 99.6413 42.0449 105.396 47.3447L99.1435 53.5835C95.0497 49.941 89.8411 47.7952 84.3695 47.4969V38.6643ZM84.3695 50.0837C89.1672 50.3278 93.7366 52.2073 97.3175 55.4095L97.0132 55.7208L96.7089 55.5686C95.948 55.2643 94.4264 56.7859 94.7307 56.9381C95.035 57.0903 95.6437 56.3294 95.948 56.4816H96.1002L93.5134 59.2206C92.7525 59.5249 91.9917 60.1336 91.9917 60.5901V60.7423L91.0718 61.6553L90.6153 61.1988C89.8952 60.5959 89.0697 60.1316 88.1806 59.8293C88.6371 59.5249 88.7893 59.0684 88.9414 58.4598C88.9414 57.5468 88.6371 57.8511 88.1806 58.3076C87.7241 58.7641 87.2676 58.9163 86.9633 59.3728C86.1836 59.0745 85.3564 58.9199 84.5217 58.9163V50.0837H84.3695ZM83.3043 61.3579C83.4565 61.6553 83.3044 61.9665 83.1522 62.1187C82.8479 62.423 81.9349 61.3579 81.7827 62.2709C81.4784 63.1839 82.3913 62.7274 82.3913 62.8795C82.835 63.4623 83.4917 63.8453 84.2173 63.9447C84.826 63.9447 85.739 63.9447 85.739 64.5534C85.739 64.8577 86.4999 64.8577 86.6589 65.162C86.6589 65.6185 87.1154 66.3794 87.4198 66.2272C87.7241 66.075 88.1806 66.3794 88.3328 66.6837C88.4849 66.988 88.3328 67.1402 88.1806 67.4445C87.7241 67.901 88.6371 67.7489 88.7893 68.6619C88.9414 69.5749 88.0284 68.9662 87.8763 69.5818C87.5719 70.0383 87.2676 70.3426 86.9633 70.7991C86.8111 70.9513 87.1154 71.2556 87.2676 71.1034C87.4198 70.9513 87.7241 70.4948 88.1806 70.4948C88.6371 70.4948 89.0936 72.1686 89.5501 72.3208C90.0066 72.4729 89.8544 73.0816 90.0066 73.2338C90.1588 73.3859 89.2458 73.2338 89.3979 73.5381C89.5501 73.8424 90.4631 73.9946 90.4631 74.4511C90.3109 74.9076 90.0066 75.3641 89.3979 75.3641C88.9414 75.3641 88.1806 74.2989 88.1806 74.6033C88.1806 74.9076 88.4849 75.8206 88.9414 75.8206C89.3979 75.8206 90.4631 75.3641 90.0066 75.9728C89.5501 76.5814 89.7023 77.4944 89.3979 77.4944C89.0936 77.4944 88.9414 77.4944 89.2458 77.9579C89.3979 78.4144 89.2458 78.8709 88.9414 79.3274C88.6371 79.6317 87.8763 79.3274 87.8763 79.1752C87.8763 79.023 88.7893 79.023 88.7893 78.5665C88.7893 78.11 88.3328 77.9579 87.4198 78.2622C86.9633 78.4144 86.8111 78.11 86.5068 78.11C86.2024 78.11 85.2894 79.1752 85.2894 79.3274V80.0882C85.3005 80.6318 85.1382 81.1647 84.826 81.6099C84.2174 81.762 83.7609 81.762 83.1522 81.762C80.7175 81.762 78.2829 80.6969 76.4499 79.1752C76.8291 78.9808 77.2481 78.8767 77.6742 78.8709C78.1307 79.023 78.2829 78.7187 78.5872 78.5665C78.8915 78.4144 79.6523 78.8709 80.1088 78.5665C80.5653 78.2622 81.6305 76.284 81.4783 75.8206C81.3262 75.3572 82.5435 74.6033 82.3913 74.4511C82.2392 74.2989 82.087 74.6033 82.087 74.4511C82.087 74.2989 82.3914 74.2989 82.087 73.6903C81.7827 73.0816 81.3262 73.3859 81.0218 73.3859C80.5653 73.0816 79.8045 72.9294 79.6523 73.0816C79.5002 73.2338 79.0437 72.7773 78.8915 72.9294C78.7394 72.9294 78.435 73.0816 78.435 73.3859C78.2829 73.6903 78.5872 73.9946 78.5872 74.2989C78.435 74.9076 77.5151 75.3641 77.5151 75.8206C77.5151 76.2771 77.0586 75.9728 76.9064 76.1249C76.7543 76.2771 76.9064 76.5814 76.6021 76.5814C76.2978 76.5814 75.8413 77.3423 75.5369 77.9579C75.0804 77.3492 74.6239 76.5814 74.1674 75.9728C74.4718 75.8206 74.7761 75.6684 74.9283 75.8206C75.3848 76.1249 77.2108 72.9294 76.9064 72.0164C76.6021 71.1034 76.1456 71.7121 75.6891 71.8643C75.2326 72.0164 75.2326 71.5599 75.3848 71.4078C75.5369 71.2556 77.5151 71.2556 76.4499 70.6469C75.9934 70.3426 74.7761 70.3426 74.9283 69.8861C75.0804 69.4296 75.6891 69.8861 75.8413 69.8861C76.6021 70.1904 77.0586 68.6619 77.5151 68.6619C78.2759 68.6619 77.9785 67.1402 77.2108 67.5967C76.443 68.0532 76.1456 67.901 75.8413 68.3575C75.5369 68.814 74.7761 69.4227 74.7761 68.814C74.7761 68.5097 76.4499 67.5967 76.7543 67.1402C77.0902 66.7921 77.3494 66.3774 77.5151 65.9229C77.6742 65.4664 79.7976 65.162 80.261 64.8577C80.5654 64.5534 80.8697 64.0969 80.8697 63.6404C80.8697 63.1839 80.261 63.336 80.1088 63.0317C79.9567 62.7274 80.8697 63.0317 80.8697 62.5752C80.8697 62.1187 80.1089 62.5752 79.8045 62.2709C79.8045 62.1187 79.8045 62.1187 79.9567 61.9665C81.3262 61.5031 82.2392 61.3509 83.3043 61.3509H83.6087M81.9348 15.9707V24.8033C70.455 25.1393 59.5017 29.695 51.1695 37.5991L44.9238 31.3534C54.8823 21.7462 68.1005 16.2525 81.9348 15.9707ZM42.9387 33.1794L49.1844 39.4251C41.2803 47.7573 36.7247 58.7106 36.3886 70.1904H27.556C27.9764 56.3856 33.4503 43.2154 42.9387 33.1794Z" fill="#4C89FB"/>
</g>
<defs>
<clipPath id="clip0_38_1479">
<rect width="166" height="166" fill="white"/>
</clipPath>
</defs>
</svg>
