<svg width="101" height="100" viewBox="0 0 101 100" fill="none" xmlns="http://www.w3.org/2000/svg">
<g id="ri:user-community-fill" clip-path="url(#clip0_38_1378)">
<path id="Vector" d="M22.3083 32.2083C25.3129 27.4481 29.474 23.5263 34.4036 20.8086C39.3333 18.091 44.8709 16.666 50.5 16.6666C56.1298 16.6653 61.6683 18.09 66.5987 20.8076C71.5291 23.5253 75.6909 27.4475 78.6958 32.2083L85.7375 27.75C81.9808 21.8019 76.7792 16.9019 70.6176 13.5068C64.456 10.1116 57.5351 8.3318 50.5 8.33331C43.4656 8.3325 36.5456 10.1126 30.3848 13.5078C24.224 16.9029 19.023 21.8025 15.2667 27.75L22.3083 32.2083ZM50.5 83.3333C44.8709 83.3339 39.3333 81.909 34.4036 79.1913C29.474 76.4737 25.3129 72.5519 22.3083 67.7917L15.2667 72.25C19.023 78.1974 24.224 83.0971 30.3848 86.4922C36.5456 89.8873 43.4656 91.6675 50.5 91.6667C57.5351 91.6682 64.456 89.8884 70.6176 86.4932C76.7792 83.098 81.9808 78.198 85.7375 72.25L78.6958 67.7917C75.6909 72.5525 71.5291 76.4746 66.5987 79.1923C61.6683 81.91 56.1298 83.3346 50.5 83.3333ZM50.5 50C53.8152 50 56.9946 48.683 59.3388 46.3388C61.683 43.9946 63 40.8152 63 37.5C63 34.1848 61.683 31.0054 59.3388 28.6611C56.9946 26.3169 53.8152 25 50.5 25C47.1848 25 44.0054 26.3169 41.6612 28.6611C39.317 31.0054 38 34.1848 38 37.5C38 40.8152 39.317 43.9946 41.6612 46.3388C44.0054 48.683 47.1848 50 50.5 50ZM50.5 54.1666C54.9203 54.1666 59.1595 55.9226 62.2851 59.0482C65.4107 62.1738 67.1667 66.413 67.1667 70.8333H33.8333C33.8333 66.413 35.5893 62.1738 38.7149 59.0482C41.8405 55.9226 46.0797 54.1666 50.5 54.1666ZM25.5 50C25.5 53.3152 24.183 56.4946 21.8388 58.8388C19.4946 61.183 16.3152 62.5 13 62.5C9.68479 62.5 6.50537 61.183 4.16116 58.8388C1.81696 56.4946 0.5 53.3152 0.5 50C0.5 46.6848 1.81696 43.5054 4.16116 41.1611C6.50537 38.8169 9.68479 37.5 13 37.5C16.3152 37.5 19.4946 38.8169 21.8388 41.1611C24.183 43.5054 25.5 46.6848 25.5 50ZM88 62.5C91.3152 62.5 94.4946 61.183 96.8388 58.8388C99.183 56.4946 100.5 53.3152 100.5 50C100.5 46.6848 99.183 43.5054 96.8388 41.1611C94.4946 38.8169 91.3152 37.5 88 37.5C84.6848 37.5 81.5054 38.8169 79.1612 41.1611C76.817 43.5054 75.5 46.6848 75.5 50C75.5 53.3152 76.817 56.4946 79.1612 58.8388C81.5054 61.183 84.6848 62.5 88 62.5Z" fill="#2D004E"/>
</g>
<defs>
<clipPath id="clip0_38_1378">
<rect width="100" height="100" fill="white" transform="translate(0.5)"/>
</clipPath>
</defs>
</svg>
