<svg width="101" height="100" viewBox="0 0 101 100" fill="none" xmlns="http://www.w3.org/2000/svg">
<g id="icon-park-solid:concept-sharing">
<g id="Group">
<path id="Vector" d="M59.5979 75H50.5L31.75 64.6666L8.85208 73.0875L15.1062 85.4708L29.8396 79.3187C43.6243 87.5507 52.0146 91.6666 55.0104 91.6666C58.0063 91.6666 70.3917 86.1111 92.1667 75" stroke="#2D004E" stroke-width="4" stroke-linecap="round" stroke-linejoin="round"/>
<path id="Vector_2" fill-rule="evenodd" clip-rule="evenodd" d="M60.9 56.225V46.4958C63.1917 45.5437 66.1979 44.1521 67.925 42.425C70.5472 39.8027 72.333 36.4618 73.0564 32.8247C73.7799 29.1875 73.4085 25.4175 71.9894 21.9914C70.5702 18.5653 68.167 15.637 65.0836 13.5767C62.0002 11.5165 58.3751 10.4168 54.6667 10.4168C50.9583 10.4168 47.3332 11.5165 44.2497 13.5767C41.1663 15.637 38.7631 18.5653 37.3439 21.9914C35.9248 25.4175 35.5535 29.1875 36.2769 32.8247C37.0004 36.4618 38.7861 39.8027 41.4083 42.425C43.1354 44.1521 46.125 45.5437 48.4167 46.4937C48.4292 47.1923 48.4292 50.4354 48.4167 56.2229L60.9 56.225Z" fill="#2D004E" stroke="#2D004E" stroke-width="4" stroke-linejoin="round"/>
<path id="Vector_3" d="M25.5 43.75L27.5833 41.6666M83.8333 43.75L81.75 41.6666M31.75 10.4166L29.6667 8.33331M77.5833 10.4166L79.6667 8.33331M85.9167 25H83.8333M25.5 25H23.4167" stroke="#2D004E" stroke-width="4" stroke-linecap="round"/>
</g>
</g>
</svg>
