<svg width="101" height="100" viewBox="0 0 101 100" fill="none" xmlns="http://www.w3.org/2000/svg">
<g id="streamline:industry-innovation-and-infrastructure-solid" clip-path="url(#clip0_38_1394)">
<path id="Vector" fill-rule="evenodd" clip-rule="evenodd" d="M51.9785 3.41431C51.5142 3.20314 51.0101 3.09387 50.5 3.09387C49.9899 3.09387 49.4857 3.20314 49.0214 3.41431L30.2857 11.9429L50.4857 21.1429L70.7 11.9357L51.9785 3.41431ZM26.9286 40.0715V18.2572L46.9286 27.3643V51.4715L29.0071 43.3215C28.3832 43.0377 27.8541 42.5804 27.483 42.0041C27.1119 41.4278 26.9145 40.7569 26.9143 40.0715H26.9286ZM54.0714 88.0143V64.1572L73.0143 72.7857V96.8929L55.1143 88.7429C54.7233 88.5651 54.3748 88.3183 54.0714 88.0143ZM80.1571 96.9072V72.7857L100.179 63.6715V85.4929C100.178 86.1783 99.9809 86.8492 99.6098 87.4255C99.2387 88.0018 98.7096 88.4591 98.0857 88.7429L80.1571 96.9072ZM46.9143 64.1572V88.0429C46.6171 88.3339 46.2715 88.5708 45.8928 88.7429L27.9643 96.9072V72.7857L46.9143 64.1572ZM20.8214 72.7857V96.8929L2.92855 88.7429C2.30461 88.4591 1.77552 88.0018 1.40441 87.4255C1.03331 86.8492 0.835883 86.1783 0.835693 85.4929V63.6786L20.8357 72.7857H20.8214ZM54.0571 51.4857V27.3572L74.0785 18.2429V40.0715C74.0784 40.7569 73.8809 41.4278 73.5098 42.0041C73.1387 42.5804 72.6096 43.0377 71.9857 43.3215L54.0571 51.4857ZM75.1143 48.8429C75.5786 48.6317 76.0827 48.5224 76.5928 48.5224C77.1029 48.5224 77.6071 48.6317 78.0714 48.8429L96.7857 57.3572L76.5714 66.5643L56.3928 57.3572L75.1214 48.8286L75.1143 48.8429ZM22.9286 48.8429C23.3929 48.6317 23.897 48.5224 24.4071 48.5224C24.9172 48.5224 25.4214 48.6317 25.8857 48.8429L44.6 57.3572L24.3928 66.5715L4.19998 57.3572L22.9286 48.8429Z" fill="#2D004E"/>
</g>
<defs>
<clipPath id="clip0_38_1394">
<rect width="100" height="100" fill="white" transform="translate(0.5)"/>
</clipPath>
</defs>
</svg>
