<svg width="101" height="100" viewBox="0 0 101 100" fill="none" xmlns="http://www.w3.org/2000/svg">
<g id="bi:transparency" clip-path="url(#clip0_38_1398)">
<path id="Vector" d="M0.50001 40.625C0.493681 31.432 3.60552 22.5086 9.32702 15.3131C15.0485 8.1175 23.0414 3.07524 31.9994 1.01022C40.9575 -1.0548 50.3512 -0.0204621 58.6453 3.9442C66.9395 7.90887 73.6437 14.5694 77.6625 22.8375C83.4797 25.6734 88.5352 29.8579 92.4081 35.0428C96.281 40.2277 98.8592 46.2627 99.9279 52.6455C100.997 59.0283 100.525 65.574 98.5524 71.7377C96.5797 77.9013 93.163 83.5045 88.5869 88.0806C84.0108 92.6568 78.4076 96.0734 72.2439 98.0461C66.0803 100.019 59.5346 100.49 53.1518 99.4216C46.769 98.3529 40.7339 95.7747 35.5491 91.9019C30.3642 88.029 26.1796 82.9734 23.3438 77.1562C16.4937 73.8217 10.7194 68.6281 6.68005 62.1684C2.64072 55.7088 0.499202 48.2436 0.50001 40.625ZM32.65 80.3625C35.6337 84.232 39.4081 87.421 43.7215 89.7168C48.0349 92.0126 52.7881 93.3624 57.6643 93.6762C62.5405 93.99 67.4276 93.2607 71.9997 91.5368C76.5718 89.8129 80.7239 87.1341 84.179 83.679C87.6341 80.2238 90.3129 76.0718 92.0368 71.4997C93.7607 66.9276 94.4901 62.0405 94.1762 57.1643C93.8624 52.2881 92.5126 47.5348 90.2168 43.2215C87.921 38.9081 84.7321 35.1337 80.8625 32.15C82.2777 38.7778 82.0123 45.6542 80.0904 52.1532C78.1686 58.6522 74.6515 64.5671 69.8593 69.3593C65.0671 74.1514 59.1522 77.6686 52.6532 79.5904C46.1543 81.5122 39.2778 81.7777 32.65 80.3625ZM28.0688 72.4312C30.3438 73.3729 32.7271 74.0604 35.2188 74.4937L26.0063 65.2812C26.4396 67.7687 27.1271 70.1521 28.0688 72.4312ZM44.4063 74.8437C46.8978 74.608 49.3561 74.1008 51.7375 73.3312L27.8375 49.4375C26.9973 51.7017 26.3777 54.0417 25.9875 56.425L44.4063 74.8437ZM57.8875 70.6437C59.7458 69.6021 61.4917 68.4021 63.125 67.0437L34.3625 38.2875C32.9962 39.9018 31.7689 41.6288 30.6938 43.45L57.8875 70.6437ZM67.5438 62.6187C68.8979 60.9937 70.0979 59.25 71.1438 57.3875L43.9563 30.1875C42.1329 31.2623 40.4038 32.4896 38.7875 33.8562L67.5375 62.6187H67.5438ZM73.8313 51.2312C74.5938 48.8896 75.0979 46.4479 75.3438 43.9062L56.925 25.4875C54.5083 25.8875 52.1792 26.5042 49.9375 27.3375L73.8313 51.2375V51.2312ZM74.9938 34.7187C74.567 32.2678 73.8755 29.8704 72.9313 27.5687C70.6296 26.6245 68.2322 25.933 65.7813 25.5062L74.9938 34.7187Z" fill="#2D004E"/>
</g>
<defs>
<clipPath id="clip0_38_1398">
<rect width="100" height="100" fill="white" transform="translate(0.5)"/>
</clipPath>
</defs>
</svg>
